<svg xmlns="http://www.w3.org/2000/svg" xmlns:xlink="http://www.w3.org/1999/xlink" version="1.1" id="Laag_1" x="0px" y="0px" viewBox="0 0 312.6 146.4" style="enable-background:new 0 0 312.6 146.4;" xml:space="preserve">
<style type="text/css">
	.st0{fill:#FFFFFF;}
	.st1{opacity:0.5;}
</style>
<polygon class="st0" points="312.6,0 312.6,135.2 0,146.4 0,135.2 0,124 0,0 "/>
<g class="st1">
	<polygon class="st0" points="312.6,124 312.6,146.4 0,135.2  "/>
</g>
<polygon points="23.7,21.2 23.7,80.6 288.9,90.1 288.9,80.6 288.9,71.2 288.9,21.2 "/>
<g class="st1">
	<polygon points="23.7,71.2 23.7,90.1 288.9,80.6  "/>
</g>
<g>
	<path class="st0" d="M36.1,65.9c-0.4-0.4-0.6-0.9-0.6-1.5V37.6c0-0.6,0.2-1.1,0.6-1.5c0.4-0.4,0.9-0.6,1.5-0.6H47   c1.8,0,3.3,0.4,4.7,1.1c1.4,0.7,2.5,1.7,3.2,2.9c0.8,1.3,1.2,2.7,1.2,4.3c0,1.3-0.4,2.5-1.1,3.5c-0.7,1-1.7,1.9-2.9,2.5   c1.8,0.4,3.2,1.3,4.2,2.5c1,1.3,1.5,2.9,1.5,4.8c0,1.8-0.4,3.4-1.3,4.8c-0.9,1.4-2.1,2.5-3.6,3.3c-1.5,0.8-3.3,1.2-5.3,1.2H37.6   C37,66.5,36.5,66.3,36.1,65.9z M47,48.2c1.6,0,2.8-0.4,3.8-1.2c0.9-0.8,1.4-1.9,1.4-3.3c0-1.5-0.5-2.6-1.4-3.3   c-0.9-0.8-2.2-1.1-3.8-1.1h-7.4v8.9H47z M47.9,62.7c1.9,0,3.3-0.5,4.5-1.4c1.1-1,1.7-2.3,1.7-4.1c0-1.6-0.6-2.9-1.7-3.8   c-1.1-0.9-2.6-1.3-4.5-1.3h-8.3v10.6H47.9z"/>
	<path class="st0" d="M77.7,45.2c0.8,0.4,1.2,1,1.2,1.6c0,0.2,0,0.3,0,0.4c-0.2,0.8-0.8,1.3-1.6,1.3c-0.1,0-0.3,0-0.6-0.1   c-1.1-0.2-1.9-0.3-2.6-0.3c-1.9,0-3.4,0.4-4.6,1.3c-1.2,0.9-1.7,2.1-1.7,3.5v11.6c0,0.6-0.2,1.1-0.5,1.5c-0.3,0.3-0.8,0.5-1.5,0.5   c-0.6,0-1.1-0.2-1.5-0.5c-0.3-0.3-0.5-0.8-0.5-1.5V46.8c0-0.6,0.2-1.1,0.5-1.5c0.3-0.3,0.8-0.5,1.5-0.5c1.3,0,2,0.7,2,2v0.8   c0.8-0.9,1.8-1.7,2.9-2.2c1.2-0.5,2.4-0.8,3.7-0.8C75.9,44.5,76.9,44.8,77.7,45.2z"/>
	<path class="st0" d="M85.7,65.3c-1.7-0.9-3-2.2-3.9-3.9c-0.9-1.7-1.4-3.6-1.4-5.7c0-2.1,0.5-4.1,1.4-5.7c0.9-1.7,2.2-3,3.9-3.9   c1.7-0.9,3.6-1.4,5.7-1.4c2.1,0,4,0.5,5.6,1.4c1.7,0.9,3,2.2,3.9,3.9c0.9,1.7,1.4,3.6,1.4,5.7c0,2.1-0.5,4-1.4,5.7   c-0.9,1.7-2.2,3-3.9,3.9c-1.7,0.9-3.5,1.4-5.7,1.4C89.2,66.7,87.4,66.2,85.7,65.3z M95,62.1c1.1-0.6,1.9-1.5,2.5-2.6   c0.6-1.1,0.9-2.4,0.9-3.8c0-1.4-0.3-2.7-0.9-3.9c-0.6-1.1-1.4-2-2.5-2.7c-1.1-0.6-2.3-1-3.6-1c-1.4,0-2.6,0.3-3.6,1   c-1.1,0.6-1.9,1.5-2.5,2.7c-0.6,1.1-0.9,2.4-0.9,3.9c0,1.4,0.3,2.7,0.9,3.8c0.6,1.1,1.4,2,2.5,2.6c1.1,0.6,2.3,1,3.6,1   C92.7,63.1,93.9,62.8,95,62.1z"/>
	<path class="st0" d="M112.5,65.2c-1.7-1-3-2.3-3.9-4c-0.9-1.7-1.4-3.6-1.4-5.6c0-2.1,0.5-4,1.4-5.7c0.9-1.7,2.2-3,3.8-3.9   c1.6-0.9,3.5-1.4,5.6-1.4c3.1,0,5.7,1.2,7.8,3.6c0.3,0.3,0.4,0.6,0.4,1c0,0.6-0.3,1.1-0.9,1.5c-0.3,0.2-0.6,0.3-0.9,0.3   c-0.6,0-1.1-0.2-1.5-0.7c-0.7-0.7-1.4-1.2-2.2-1.6c-0.8-0.3-1.7-0.5-2.7-0.5c-2,0-3.7,0.7-5,2c-1.3,1.4-1.9,3.2-1.9,5.4   c0,1.4,0.3,2.7,0.9,3.8c0.6,1.1,1.4,2,2.5,2.6c1.1,0.6,2.3,1,3.7,1c1.8,0,3.3-0.5,4.4-1.4c0.5-0.4,1-0.6,1.5-0.6   c0.4,0,0.7,0.1,1,0.4c0.5,0.4,0.8,0.9,0.8,1.4c0,0.4-0.2,0.8-0.5,1.1c-1.9,1.8-4.3,2.7-7.1,2.7C116.1,66.7,114.2,66.2,112.5,65.2z"/>
	<path class="st0" d="M149,64.8c0,0.6-0.2,1.1-0.7,1.5c-0.4,0.3-0.8,0.5-1.3,0.5c-0.6,0-1.1-0.2-1.4-0.7l-7.5-9.3l-2,1.7v6.1   c0,0.6-0.2,1.1-0.5,1.4c-0.4,0.4-0.8,0.5-1.4,0.5c-0.6,0-1.1-0.2-1.4-0.5c-0.4-0.4-0.5-0.8-0.5-1.4V37.4c0-0.6,0.2-1.1,0.5-1.4   c0.4-0.4,0.8-0.5,1.4-0.5c0.6,0,1.1,0.2,1.4,0.5c0.4,0.4,0.5,0.8,0.5,1.4v16.2l9.6-8.6c0.3-0.3,0.8-0.5,1.2-0.5   c0.6,0,1,0.2,1.4,0.6c0.3,0.3,0.5,0.8,0.5,1.2c0,0.6-0.2,1-0.6,1.3l-7.3,6.5l7.7,9.5C148.9,64,149,64.4,149,64.8z"/>
	<path class="st0" d="M183.2,46.8c1.4,1.5,2.1,3.6,2.1,6.3v11.4c0,0.6-0.2,1.1-0.6,1.4c-0.4,0.4-0.9,0.6-1.5,0.6   c-0.6,0-1.1-0.2-1.4-0.6c-0.4-0.4-0.6-0.9-0.6-1.4V53.2c0-1.6-0.4-2.8-1.2-3.7c-0.8-0.8-1.9-1.3-3.2-1.3c-1.4,0-2.5,0.5-3.4,1.4   c-0.9,1-1.3,2.2-1.3,3.7v11.2c0,0.6-0.2,1.1-0.6,1.4c-0.4,0.4-0.9,0.6-1.5,0.6c-0.6,0-1.1-0.2-1.4-0.6c-0.4-0.4-0.6-0.9-0.6-1.4   V53.2c0-1.6-0.4-2.8-1.2-3.7c-0.8-0.8-1.9-1.3-3.2-1.3c-1.4,0-2.5,0.5-3.4,1.4c-0.9,1-1.3,2.2-1.3,3.7v11.2c0,0.6-0.2,1.1-0.6,1.4   c-0.4,0.4-0.9,0.6-1.5,0.6c-0.6,0-1.1-0.2-1.4-0.6c-0.4-0.4-0.6-0.9-0.6-1.4V46.8c0-0.6,0.2-1.1,0.6-1.5c0.4-0.4,0.9-0.6,1.4-0.6   c0.6,0,1.1,0.2,1.4,0.5c0.4,0.4,0.6,0.8,0.6,1.4c0.7-0.7,1.5-1.2,2.5-1.6c1-0.4,2-0.6,3.1-0.6c1.4,0,2.6,0.3,3.6,0.8   c1.1,0.5,2,1.3,2.6,2.3c0.8-1,1.8-1.7,3-2.3c1.2-0.6,2.5-0.8,4-0.8C179.9,44.6,181.8,45.3,183.2,46.8z"/>
	<path class="st0" d="M211,56.6c-0.3,0.3-0.8,0.5-1.3,0.5h-15.1c0.3,1.9,1.1,3.3,2.5,4.5c1.4,1.1,3.1,1.7,5.1,1.7   c0.8,0,1.6-0.1,2.5-0.4c0.9-0.3,1.6-0.6,2.1-1.1c0.4-0.3,0.8-0.4,1.3-0.4c0.5,0,0.9,0.1,1.2,0.4c0.5,0.4,0.7,0.8,0.7,1.4   c0,0.5-0.2,0.9-0.6,1.2c-0.9,0.7-2,1.3-3.4,1.7s-2.6,0.7-3.8,0.7c-2.2,0-4.1-0.5-5.8-1.4c-1.7-0.9-3.1-2.2-4-3.9   c-1-1.7-1.4-3.6-1.4-5.7c0-2.1,0.5-4,1.4-5.7c0.9-1.7,2.2-3,3.8-3.9c1.6-0.9,3.5-1.4,5.5-1.4c2,0,3.8,0.5,5.3,1.4   c1.5,0.9,2.6,2.2,3.4,3.8c0.8,1.6,1.2,3.5,1.2,5.6C211.5,55.8,211.4,56.2,211,56.6z M196.9,49.6c-1.2,1.1-2,2.5-2.3,4.2h13.2   c-0.2-1.8-0.9-3.2-2-4.2c-1.1-1.1-2.5-1.6-4.2-1.6C199.7,48,198.1,48.6,196.9,49.6z"/>
	<path class="st0" d="M234.5,46.5c0,0.3-0.1,0.6-0.2,1l-12.2,27.3c-0.3,0.8-0.8,1.2-1.5,1.2c-0.3,0-0.6-0.1-1-0.2   c-0.8-0.3-1.2-0.9-1.2-1.5c0-0.3,0.1-0.6,0.2-1l4-8.9l-8.9-17c-0.1-0.2-0.2-0.5-0.2-0.8c0-0.3,0.1-0.7,0.3-1   c0.2-0.3,0.5-0.5,0.8-0.7c0.2-0.1,0.5-0.2,0.8-0.2c0.7,0,1.3,0.4,1.7,1.1l7.3,14.5l6.4-14.4c0.3-0.8,0.9-1.2,1.5-1.2   c0.3,0,0.7,0.1,1,0.2C234.1,45.3,234.5,45.8,234.5,46.5z"/>
	<path class="st0" d="M256.3,56.6c-0.3,0.3-0.8,0.5-1.3,0.5h-15.1c0.3,1.9,1.1,3.3,2.5,4.5c1.4,1.1,3.1,1.7,5.1,1.7   c0.8,0,1.6-0.1,2.5-0.4c0.9-0.3,1.6-0.6,2.1-1.1c0.4-0.3,0.8-0.4,1.3-0.4c0.5,0,0.9,0.1,1.2,0.4c0.5,0.4,0.7,0.8,0.7,1.4   c0,0.5-0.2,0.9-0.6,1.2c-0.9,0.7-2,1.3-3.4,1.7c-1.3,0.4-2.6,0.7-3.8,0.7c-2.2,0-4.1-0.5-5.8-1.4c-1.7-0.9-3.1-2.2-4-3.9   c-1-1.7-1.4-3.6-1.4-5.7c0-2.1,0.5-4,1.4-5.7s2.2-3,3.8-3.9c1.6-0.9,3.5-1.4,5.5-1.4c2,0,3.8,0.5,5.3,1.4c1.5,0.9,2.6,2.2,3.4,3.8   c0.8,1.6,1.2,3.5,1.2,5.6C256.8,55.8,256.6,56.2,256.3,56.6z M242.2,49.6c-1.2,1.1-2,2.5-2.3,4.2h13.2c-0.2-1.8-0.9-3.2-2-4.2   c-1.1-1.1-2.5-1.6-4.2-1.6C245,48,243.4,48.6,242.2,49.6z"/>
	<path class="st0" d="M275.9,45.2c0.8,0.4,1.2,1,1.2,1.6c0,0.2,0,0.3,0,0.4c-0.2,0.8-0.8,1.3-1.6,1.3c-0.1,0-0.3,0-0.6-0.1   c-1.1-0.2-1.9-0.3-2.6-0.3c-1.9,0-3.4,0.4-4.6,1.3c-1.2,0.9-1.7,2.1-1.7,3.5v11.6c0,0.6-0.2,1.1-0.5,1.5c-0.3,0.3-0.8,0.5-1.5,0.5   c-0.6,0-1.1-0.2-1.5-0.5c-0.3-0.3-0.5-0.8-0.5-1.5V46.8c0-0.6,0.2-1.1,0.5-1.5c0.3-0.3,0.8-0.5,1.5-0.5c1.3,0,2,0.7,2,2v0.8   c0.8-0.9,1.8-1.7,2.9-2.2c1.2-0.5,2.4-0.8,3.7-0.8C274,44.5,275.1,44.8,275.9,45.2z"/>
</g>
<g>
	<path d="M37.9,120.3c-0.8-0.4-1.4-1-1.8-1.8s-0.7-1.6-0.7-2.5c0-0.2,0.1-0.4,0.2-0.6c0.2-0.2,0.4-0.2,0.6-0.2   c0.2,0,0.4,0.1,0.6,0.2c0.2,0.2,0.2,0.4,0.2,0.6c0,0.6,0.1,1.2,0.4,1.7c0.3,0.5,0.7,0.9,1.2,1.2c0.5,0.3,1.1,0.4,1.7,0.4   c0.6,0,1.2-0.2,1.7-0.5c0.5-0.3,0.9-0.7,1.2-1.2c0.3-0.5,0.4-1.1,0.4-1.7v-11c0-0.2,0.1-0.4,0.2-0.6c0.2-0.2,0.4-0.2,0.6-0.2   c0.2,0,0.4,0.1,0.6,0.2s0.2,0.4,0.2,0.6v11c0,0.9-0.2,1.8-0.7,2.5s-1,1.3-1.8,1.8c-0.8,0.4-1.6,0.7-2.5,0.7   C39.5,120.9,38.7,120.7,37.9,120.3z"/>
	<path d="M51.7,120.1c-0.9-0.5-1.6-1.2-2.1-2.1c-0.5-0.9-0.8-1.9-0.8-3c0-1.1,0.3-2.1,0.8-3c0.5-0.9,1.2-1.6,2.1-2.1   c0.9-0.5,1.9-0.8,3-0.8c1.1,0,2.1,0.3,3,0.8c0.9,0.5,1.6,1.2,2.1,2.1c0.5,0.9,0.8,1.9,0.8,3c0,1.1-0.3,2.1-0.8,3   c-0.5,0.9-1.2,1.6-2.1,2.1c-0.9,0.5-1.9,0.8-3,0.8C53.6,120.8,52.6,120.6,51.7,120.1z M56.9,118.8c0.6-0.4,1.2-0.9,1.5-1.6   c0.4-0.7,0.5-1.4,0.5-2.3c0-0.8-0.2-1.6-0.5-2.3c-0.4-0.7-0.9-1.2-1.5-1.6c-0.6-0.4-1.4-0.6-2.2-0.6c-0.8,0-1.5,0.2-2.2,0.6   c-0.7,0.4-1.2,0.9-1.5,1.6s-0.6,1.4-0.6,2.3c0,0.8,0.2,1.6,0.6,2.3s0.9,1.2,1.5,1.6c0.7,0.4,1.4,0.6,2.2,0.6   C55.5,119.4,56.2,119.2,56.9,118.8z"/>
	<path d="M72.7,109.8c0.9,0.5,1.6,1.2,2.1,2.1c0.5,0.9,0.8,1.9,0.8,3s-0.3,2.1-0.8,3s-1.2,1.6-2.1,2.1c-0.9,0.5-1.9,0.8-3,0.8   s-2.1-0.3-3-0.8c-0.9-0.5-1.6-1.2-2.1-2.1s-0.8-1.9-0.8-3v-5c0-0.1,0-0.1,0-0.2V105c0-0.2,0.1-0.4,0.2-0.6c0.1-0.2,0.3-0.2,0.6-0.2   c0.2,0,0.4,0.1,0.6,0.2c0.2,0.2,0.2,0.4,0.2,0.6v6.2c0.5-0.7,1.1-1.2,1.9-1.6s1.6-0.6,2.5-0.6C70.9,109.1,71.8,109.3,72.7,109.8z    M71.8,118.8c0.7-0.4,1.2-0.9,1.5-1.6c0.4-0.7,0.6-1.4,0.6-2.3s-0.2-1.6-0.6-2.3s-0.9-1.2-1.5-1.6c-0.7-0.4-1.4-0.6-2.2-0.6   c-1.1,0-2.1,0.4-2.8,1.1s-1.2,1.6-1.4,2.7c0,0,0,0.1,0,0.1c0,0.1,0,0.3,0,0.5c0,0.8,0.2,1.6,0.6,2.3c0.4,0.7,0.9,1.2,1.5,1.6   s1.4,0.6,2.2,0.6C70.4,119.4,71.2,119.2,71.8,118.8z"/>
	<path d="M93.1,109.6c0.6,0.4,1.1,1,1.5,1.7c0.4,0.7,0.5,1.6,0.5,2.5v6.1c0,0.2-0.1,0.4-0.2,0.6c-0.1,0.1-0.3,0.2-0.6,0.2   s-0.4-0.1-0.6-0.2c-0.2-0.1-0.2-0.3-0.2-0.6v-6.1c0-1-0.3-1.8-0.8-2.4s-1.2-0.9-2-0.9c-0.9,0-1.6,0.3-2.2,0.9s-0.8,1.4-0.8,2.3v0   v6.1c0,0.2-0.1,0.4-0.2,0.6c-0.1,0.1-0.3,0.2-0.6,0.2s-0.4-0.1-0.6-0.2c-0.2-0.1-0.2-0.3-0.2-0.6v-6.1c0-1-0.3-1.8-0.8-2.4   s-1.2-0.9-2-0.9c-0.9,0-1.6,0.3-2.2,0.9s-0.8,1.3-0.8,2.2v6.3c0,0.2-0.1,0.4-0.2,0.6c-0.1,0.1-0.3,0.2-0.6,0.2   c-0.2,0-0.4-0.1-0.6-0.2c-0.2-0.1-0.2-0.3-0.2-0.6V110c0-0.2,0.1-0.4,0.2-0.6c0.2-0.2,0.4-0.2,0.6-0.2c0.2,0,0.4,0.1,0.6,0.2   c0.1,0.2,0.2,0.4,0.2,0.6v0.5c0.4-0.5,0.9-0.8,1.4-1c0.5-0.2,1.1-0.4,1.8-0.4c0.8,0,1.5,0.2,2.1,0.5c0.6,0.4,1.1,0.8,1.5,1.5   c0.4-0.6,0.9-1.1,1.6-1.5c0.7-0.4,1.4-0.5,2.2-0.5C91.7,109,92.4,109.2,93.1,109.6z"/>
	<path d="M107,109.8c0.9,0.5,1.6,1.2,2.1,2.1s0.8,1.9,0.8,3v5c0,0.2-0.1,0.4-0.2,0.6c-0.2,0.2-0.4,0.2-0.6,0.2s-0.4-0.1-0.6-0.2   c-0.2-0.1-0.2-0.3-0.2-0.6v-1.3c-0.5,0.7-1.1,1.2-1.9,1.6s-1.6,0.6-2.5,0.6c-1.1,0-2-0.3-2.9-0.8c-0.9-0.5-1.6-1.2-2.1-2.1   c-0.5-0.9-0.8-1.9-0.8-3s0.3-2.1,0.8-3s1.2-1.6,2.1-2.1c0.9-0.5,1.9-0.8,3-0.8S106.1,109.3,107,109.8z M106.2,118.8   c0.6-0.4,1.2-0.9,1.5-1.6s0.6-1.4,0.6-2.3s-0.2-1.6-0.6-2.3c-0.4-0.7-0.9-1.2-1.5-1.6s-1.4-0.6-2.2-0.6s-1.5,0.2-2.2,0.6   c-0.7,0.4-1.2,0.9-1.5,1.6c-0.4,0.7-0.6,1.4-0.6,2.3s0.2,1.6,0.6,2.3s0.9,1.2,1.5,1.6c0.7,0.4,1.4,0.6,2.2,0.6   S105.5,119.2,106.2,118.8z"/>
	<path d="M119.7,109.3c0.3,0.2,0.5,0.4,0.5,0.7c0,0.1,0,0.1,0,0.2c-0.1,0.2-0.1,0.3-0.3,0.4c-0.1,0.1-0.3,0.1-0.5,0.1   c-0.1,0-0.3,0-0.7,0c-0.1,0-0.3,0-0.5,0c-1.1,0-1.9,0.3-2.6,0.8c-0.7,0.6-1,1.3-1,2.2v6.3c0,0.3-0.1,0.5-0.2,0.6   c-0.1,0.1-0.3,0.2-0.6,0.2c-0.3,0-0.5-0.1-0.6-0.2c-0.1-0.1-0.2-0.3-0.2-0.6v-10c0-0.3,0.1-0.5,0.2-0.6c0.1-0.1,0.3-0.2,0.6-0.2   c0.3,0,0.5,0.1,0.6,0.2c0.1,0.1,0.2,0.3,0.2,0.6v0.9c0.4-0.6,0.9-1,1.6-1.4c0.6-0.3,1.3-0.5,2.1-0.5   C118.8,109,119.3,109.1,119.7,109.3z"/>
	<path d="M131.6,120.1c0,0.2-0.1,0.4-0.3,0.6c-0.2,0.1-0.3,0.2-0.5,0.2c-0.2,0-0.4-0.1-0.6-0.3l-4.4-5.3l-1.6,1.4v3.3   c0,0.2-0.1,0.4-0.2,0.6c-0.1,0.1-0.3,0.2-0.6,0.2s-0.4-0.1-0.6-0.2c-0.1-0.1-0.2-0.3-0.2-0.6V105c0-0.2,0.1-0.4,0.2-0.6   c0.1-0.1,0.3-0.2,0.6-0.2s0.4,0.1,0.6,0.2c0.1,0.1,0.2,0.3,0.2,0.6v9.6l6-5.4c0.2-0.1,0.3-0.2,0.5-0.2c0.2,0,0.4,0.1,0.5,0.3   c0.2,0.2,0.2,0.4,0.2,0.5c0,0.2-0.1,0.4-0.3,0.5l-4.2,3.8l4.4,5.4C131.6,119.7,131.6,119.9,131.6,120.1z"/>
	<path d="M141.8,109.8c0.8,0.5,1.4,1.2,1.9,2c0.4,0.9,0.7,1.8,0.7,2.9c0,0.2-0.1,0.4-0.2,0.5c-0.1,0.1-0.3,0.2-0.5,0.2h-8.5   c0.1,1.2,0.6,2.1,1.4,2.8c0.8,0.7,1.8,1.1,3,1.1c0.5,0,1-0.1,1.5-0.3c0.5-0.2,0.9-0.4,1.2-0.7c0.2-0.1,0.4-0.2,0.6-0.2   c0.2,0,0.3,0.1,0.5,0.2c0.2,0.2,0.3,0.4,0.3,0.6c0,0.2-0.1,0.3-0.2,0.5c-0.5,0.4-1.1,0.7-1.8,1c-0.7,0.3-1.4,0.4-2.1,0.4   c-1.1,0-2.1-0.3-3-0.8c-0.9-0.5-1.6-1.2-2.1-2.1s-0.8-1.9-0.8-3c0-1.1,0.2-2.2,0.7-3.1s1.1-1.6,2-2.1c0.8-0.5,1.8-0.8,2.9-0.8   C140.1,109.1,141,109.3,141.8,109.8z M136.4,111.5c-0.7,0.7-1.1,1.5-1.3,2.6h7.7c-0.1-1.1-0.5-2-1.2-2.6c-0.7-0.7-1.5-1-2.6-1   C138,110.5,137.1,110.9,136.4,111.5z"/>
	<path d="M152.8,119.3c0.1,0.2,0.2,0.4,0.2,0.6c0,0.2-0.1,0.4-0.3,0.6c-0.2,0.2-0.4,0.2-0.6,0.2h-0.4c-0.7,0-1.4-0.2-2-0.5   s-1.1-0.8-1.4-1.5s-0.5-1.3-0.5-2.1V111h-1.4c-0.2,0-0.4-0.1-0.5-0.2c-0.1-0.1-0.2-0.3-0.2-0.5c0-0.2,0.1-0.4,0.2-0.5   c0.1-0.1,0.3-0.2,0.5-0.2h1.4v-3.3c0-0.2,0.1-0.4,0.2-0.6c0.1-0.2,0.3-0.2,0.6-0.2s0.4,0.1,0.6,0.2c0.2,0.2,0.2,0.4,0.2,0.6v3.3   h2.4c0.2,0,0.4,0.1,0.5,0.2c0.1,0.1,0.2,0.3,0.2,0.5c0,0.2-0.1,0.4-0.2,0.5s-0.3,0.2-0.5,0.2h-2.4v5.6c0,0.7,0.2,1.3,0.6,1.8   c0.4,0.5,1,0.7,1.6,0.7h0.6C152.4,119.1,152.6,119.2,152.8,119.3z"/>
	<path d="M155.9,106.6c-0.2-0.2-0.3-0.5-0.3-0.8c0-0.3,0.1-0.6,0.3-0.8c0.2-0.2,0.5-0.3,0.8-0.3c0.3,0,0.6,0.1,0.8,0.3   c0.2,0.2,0.3,0.5,0.3,0.8c0,0.3-0.1,0.6-0.3,0.8c-0.2,0.2-0.5,0.3-0.8,0.3S156.2,106.9,155.9,106.6z M156.2,120.5   c-0.2-0.2-0.2-0.4-0.2-0.6V110c0-0.2,0.1-0.4,0.2-0.6c0.2-0.2,0.4-0.2,0.6-0.2s0.4,0.1,0.6,0.2c0.1,0.2,0.2,0.4,0.2,0.6v9.9   c0,0.2-0.1,0.4-0.2,0.6c-0.1,0.2-0.3,0.2-0.6,0.2S156.3,120.7,156.2,120.5z"/>
	<path d="M169.9,109.7c0.8,0.4,1.4,1,1.9,1.9s0.7,1.8,0.7,2.9v5.5c0,0.2-0.1,0.4-0.2,0.6c-0.2,0.2-0.3,0.2-0.6,0.2   c-0.2,0-0.4-0.1-0.6-0.2s-0.2-0.3-0.2-0.6v-5.5c0-1.3-0.3-2.2-1-2.9c-0.7-0.7-1.6-1-2.7-1c-0.7,0-1.3,0.1-1.9,0.4   c-0.6,0.3-1,0.6-1.3,1.1c-0.3,0.5-0.5,1-0.5,1.6v6.3c0,0.2-0.1,0.4-0.2,0.6c-0.1,0.1-0.3,0.2-0.6,0.2c-0.2,0-0.4-0.1-0.6-0.2   c-0.2-0.1-0.2-0.3-0.2-0.6V110c0-0.2,0.1-0.4,0.2-0.6s0.4-0.2,0.6-0.2c0.2,0,0.4,0.1,0.6,0.2c0.1,0.2,0.2,0.4,0.2,0.6v0.7   c0.5-0.5,1-0.9,1.7-1.2c0.7-0.3,1.4-0.4,2.2-0.4C168.2,109,169.1,109.3,169.9,109.7z"/>
	<path d="M184.3,109.8c0.9,0.5,1.6,1.2,2.1,2.1c0.5,0.9,0.8,1.9,0.8,3.1v4.3c0,1.1-0.3,2.1-0.8,3.1c-0.5,0.9-1.2,1.6-2.1,2.2   c-0.9,0.5-1.9,0.8-3,0.8c-1.1,0-2.1-0.2-2.9-0.6s-1.6-1-2.1-1.7c-0.1-0.1-0.2-0.3-0.2-0.5c0-0.2,0.1-0.4,0.3-0.5   c0.1-0.1,0.3-0.1,0.5-0.1c0.1,0,0.3,0,0.4,0.1s0.2,0.1,0.3,0.2c0.4,0.5,1,1,1.6,1.2s1.4,0.4,2.2,0.4c0.8,0,1.5-0.2,2.1-0.6   s1.1-0.9,1.5-1.6c0.4-0.7,0.5-1.5,0.5-2.4v-1c-0.4,0.8-1,1.4-1.8,1.9s-1.7,0.7-2.6,0.7c-1.1,0-2.1-0.3-2.9-0.8   c-0.9-0.5-1.5-1.2-2-2.1s-0.7-1.9-0.7-3c0-1.1,0.3-2.2,0.8-3.1c0.5-0.9,1.2-1.6,2.1-2.1c0.9-0.5,1.9-0.8,3-0.8   C182.4,109.1,183.4,109.3,184.3,109.8z M183.5,118.8c0.6-0.4,1.2-0.9,1.5-1.6c0.4-0.7,0.5-1.4,0.5-2.3s-0.2-1.6-0.5-2.3   c-0.4-0.7-0.9-1.2-1.5-1.6s-1.4-0.6-2.2-0.6c-0.8,0-1.6,0.2-2.2,0.6s-1.2,0.9-1.5,1.6c-0.4,0.7-0.5,1.4-0.5,2.3s0.2,1.6,0.5,2.3   c0.4,0.7,0.9,1.2,1.5,1.6c0.6,0.4,1.4,0.6,2.2,0.6C182.1,119.4,182.9,119.2,183.5,118.8z"/>
	<path d="M197,120.5c-0.2-0.2-0.2-0.4-0.2-0.6V105c0-0.2,0.1-0.4,0.2-0.6s0.4-0.2,0.6-0.2h9.9c0.2,0,0.4,0.1,0.6,0.2   s0.2,0.3,0.2,0.6s-0.1,0.4-0.2,0.6c-0.2,0.1-0.4,0.2-0.6,0.2h-9.1v5.8h6.6c0.2,0,0.4,0.1,0.6,0.2c0.2,0.2,0.2,0.3,0.2,0.6   s-0.1,0.4-0.2,0.6s-0.4,0.2-0.6,0.2h-6.6v5.9h9.1c0.2,0,0.4,0.1,0.6,0.2c0.2,0.1,0.2,0.3,0.2,0.6s-0.1,0.4-0.2,0.6   s-0.4,0.2-0.6,0.2h-9.9C197.4,120.7,197.2,120.7,197,120.5z"/>
	<path d="M219.6,120c0,0.2-0.1,0.4-0.2,0.5c-0.1,0.1-0.3,0.2-0.5,0.2c-0.2,0-0.3,0-0.4-0.1c-0.1-0.1-0.2-0.2-0.3-0.3l-3.5-4.4   l-3.6,4.5c-0.1,0.2-0.3,0.3-0.6,0.3c-0.2,0-0.4-0.1-0.5-0.2c-0.1-0.1-0.2-0.3-0.2-0.5c0-0.2,0.1-0.4,0.2-0.6l3.7-4.6l-3.5-4.4   c-0.1-0.2-0.2-0.3-0.2-0.6c0-0.2,0.1-0.4,0.2-0.5c0.1-0.1,0.3-0.2,0.5-0.2c0.2,0,0.4,0.1,0.6,0.3l3.4,4.4l3.4-4.3   c0.2-0.3,0.4-0.4,0.7-0.4c0.2,0,0.4,0.1,0.5,0.2c0.1,0.1,0.2,0.3,0.2,0.5c0,0.2-0.1,0.4-0.2,0.6l-3.5,4.4l3.6,4.6   C219.5,119.7,219.6,119.9,219.6,120z"/>
	<path d="M231.3,109.8c0.9,0.5,1.6,1.2,2.1,2.1c0.5,0.9,0.8,1.9,0.8,3s-0.3,2.1-0.8,3c-0.5,0.9-1.2,1.6-2.1,2.1s-1.8,0.8-2.9,0.8   c-0.9,0-1.8-0.2-2.5-0.6c-0.8-0.4-1.4-0.9-1.9-1.6v6.2c0,0.2-0.1,0.4-0.2,0.6c-0.2,0.2-0.4,0.2-0.6,0.2c-0.2,0-0.4-0.1-0.6-0.2   c-0.1-0.2-0.2-0.4-0.2-0.6v-4.7c0,0,0-0.1,0-0.2v-5c0-1.1,0.3-2.1,0.8-3s1.2-1.6,2.1-2.1c0.9-0.5,1.9-0.8,3-0.8   S230.4,109.3,231.3,109.8z M230.5,118.8c0.7-0.4,1.2-0.9,1.5-1.6c0.4-0.7,0.6-1.4,0.6-2.3s-0.2-1.6-0.6-2.3   c-0.4-0.7-0.9-1.2-1.5-1.6c-0.7-0.4-1.4-0.6-2.2-0.6c-0.8,0-1.5,0.2-2.2,0.6s-1.2,0.9-1.5,1.6c-0.4,0.7-0.6,1.4-0.6,2.3   c0,0.2,0,0.4,0,0.5c0,0,0,0.1,0,0.1c0.1,1.1,0.6,2,1.4,2.7s1.7,1.1,2.8,1.1C229.1,119.4,229.8,119.2,230.5,118.8z"/>
	<path d="M245,109.8c0.8,0.5,1.4,1.2,1.9,2c0.4,0.9,0.7,1.8,0.7,2.9c0,0.2-0.1,0.4-0.2,0.5c-0.1,0.1-0.3,0.2-0.5,0.2h-8.5   c0.1,1.2,0.6,2.1,1.4,2.8c0.8,0.7,1.8,1.1,3,1.1c0.5,0,1-0.1,1.5-0.3c0.5-0.2,0.9-0.4,1.2-0.7c0.2-0.1,0.4-0.2,0.6-0.2   c0.2,0,0.3,0.1,0.5,0.2c0.2,0.2,0.3,0.4,0.3,0.6c0,0.2-0.1,0.3-0.2,0.5c-0.5,0.4-1.1,0.7-1.8,1s-1.4,0.4-2.1,0.4   c-1.1,0-2.1-0.3-3-0.8c-0.9-0.5-1.6-1.2-2.1-2.1c-0.5-0.9-0.8-1.9-0.8-3c0-1.1,0.2-2.2,0.7-3.1s1.1-1.6,2-2.1   c0.8-0.5,1.8-0.8,2.9-0.8C243.3,109.1,244.2,109.3,245,109.8z M239.6,111.5c-0.7,0.7-1.1,1.5-1.3,2.6h7.7c-0.1-1.1-0.5-2-1.2-2.6   c-0.7-0.7-1.5-1-2.6-1C241.2,110.5,240.3,110.9,239.6,111.5z"/>
	<path d="M257,109.3c0.3,0.2,0.5,0.4,0.5,0.7c0,0.1,0,0.1,0,0.2c-0.1,0.2-0.1,0.3-0.3,0.4c-0.1,0.1-0.3,0.1-0.5,0.1   c-0.1,0-0.3,0-0.7,0c-0.1,0-0.3,0-0.5,0c-1.1,0-1.9,0.3-2.6,0.8c-0.7,0.6-1,1.3-1,2.2v6.3c0,0.3-0.1,0.5-0.2,0.6   c-0.1,0.1-0.3,0.2-0.6,0.2c-0.3,0-0.5-0.1-0.6-0.2c-0.1-0.1-0.2-0.3-0.2-0.6v-10c0-0.3,0.1-0.5,0.2-0.6c0.1-0.1,0.3-0.2,0.6-0.2   c0.3,0,0.5,0.1,0.6,0.2c0.1,0.1,0.2,0.3,0.2,0.6v0.9c0.4-0.6,0.9-1,1.6-1.4c0.6-0.3,1.3-0.5,2.1-0.5   C256.1,109,256.6,109.1,257,109.3z"/>
	<path d="M265.7,119.3c0.1,0.2,0.2,0.4,0.2,0.6c0,0.2-0.1,0.4-0.3,0.6s-0.4,0.2-0.6,0.2h-0.4c-0.7,0-1.4-0.2-2-0.5   c-0.6-0.4-1.1-0.8-1.4-1.5s-0.5-1.3-0.5-2.1V111h-1.4c-0.2,0-0.4-0.1-0.5-0.2c-0.1-0.1-0.2-0.3-0.2-0.5c0-0.2,0.1-0.4,0.2-0.5   c0.1-0.1,0.3-0.2,0.5-0.2h1.4v-3.3c0-0.2,0.1-0.4,0.2-0.6c0.1-0.2,0.3-0.2,0.6-0.2c0.2,0,0.4,0.1,0.6,0.2c0.2,0.2,0.2,0.4,0.2,0.6   v3.3h2.4c0.2,0,0.4,0.1,0.5,0.2c0.1,0.1,0.2,0.3,0.2,0.5c0,0.2-0.1,0.4-0.2,0.5c-0.1,0.1-0.3,0.2-0.5,0.2h-2.4v5.6   c0,0.7,0.2,1.3,0.6,1.8s1,0.7,1.6,0.7h0.6C265.3,119.1,265.5,119.2,265.7,119.3z"/>
	<path d="M270,120.4c-0.8-0.3-1.5-0.7-1.9-1.2c-0.1-0.2-0.2-0.3-0.2-0.5c0-0.2,0.1-0.5,0.3-0.6c0.2-0.1,0.3-0.2,0.5-0.2   c0.2,0,0.4,0.1,0.6,0.3c0.3,0.4,0.8,0.7,1.3,0.9c0.6,0.2,1.2,0.3,1.9,0.3c1,0,1.7-0.2,2.2-0.5c0.5-0.3,0.7-0.8,0.8-1.3   c0-0.5-0.2-0.9-0.7-1.3c-0.5-0.3-1.3-0.6-2.3-0.8c-1.4-0.2-2.4-0.6-3.1-1.2c-0.7-0.6-1-1.2-1-2c0-1,0.4-1.8,1.2-2.4   c0.8-0.6,1.8-0.8,3-0.8c0.9,0,1.7,0.2,2.4,0.5c0.7,0.3,1.2,0.8,1.7,1.3c0.1,0.2,0.2,0.3,0.2,0.5c0,0.2-0.1,0.4-0.3,0.6   c-0.1,0.1-0.2,0.1-0.4,0.1c-0.3,0-0.5-0.1-0.7-0.3c-0.7-0.8-1.6-1.2-2.8-1.2c-0.8,0-1.4,0.2-1.9,0.5c-0.5,0.3-0.7,0.7-0.7,1.2   c0,0.5,0.2,0.9,0.7,1.2c0.4,0.3,1.2,0.5,2.3,0.7c1.5,0.3,2.6,0.7,3.2,1.2s1,1.3,1,2.1c0,0.6-0.2,1.2-0.6,1.7   c-0.4,0.5-0.9,0.9-1.6,1.2c-0.7,0.3-1.5,0.4-2.3,0.4C271.7,120.8,270.8,120.7,270,120.4z"/>
</g>
</svg>