<svg width="180" height="61" viewBox="0 0 180 81" fill="none" xmlns="http://www.w3.org/2000/svg">
<path d="M162.89 51.8727V52.5939L162.134 52.7634C162.433 53.0089 162.675 53.3156 162.844 53.6627C162.982 53.9898 163.05 54.3422 163.043 54.6971C163.05 55.1412 162.96 55.5816 162.778 55.9872C162.608 56.3576 162.361 56.6877 162.054 56.9554C161.738 57.2236 161.374 57.4293 160.982 57.5617C160.141 57.8388 159.234 57.8388 158.394 57.5617C158.002 57.4286 157.638 57.223 157.322 56.9554C157.014 56.6871 156.766 56.3573 156.594 55.9872C156.409 55.5829 156.316 55.1419 156.324 54.6971C156.322 54.3606 156.37 54.0257 156.465 53.703C156.547 53.3984 156.683 53.1112 156.868 52.8554C157.052 52.606 157.286 52.3976 157.555 52.2434C157.848 52.0751 158.173 51.9704 158.509 51.9359V53.0335C158.313 53.0599 158.124 53.1254 157.954 53.226C157.799 53.3242 157.663 53.4509 157.555 53.5995C157.446 53.7536 157.364 53.9244 157.31 54.1052C157.258 54.2922 157.231 54.4855 157.23 54.6798C157.221 54.9877 157.293 55.2925 157.437 55.5648C157.571 55.8087 157.761 56.0174 157.992 56.1739C158.232 56.3339 158.499 56.4506 158.779 56.5187C159.37 56.668 159.988 56.668 160.579 56.5187C160.859 56.4495 161.126 56.3329 161.367 56.1739C161.596 56.0173 161.785 55.8086 161.919 55.5648C162.063 55.2925 162.134 54.9877 162.126 54.6798C162.136 54.4204 162.098 54.1613 162.014 53.9156C161.94 53.7006 161.821 53.5044 161.663 53.3409C161.5 53.1835 161.303 53.0655 161.088 52.9962C160.851 52.9155 160.602 52.8729 160.352 52.8697V54.5793H159.489V51.844L162.89 51.8727Z" fill="#4429E8"/>
<path d="M156.465 49.8414V46.7757C156.465 46.0688 156.619 45.5383 156.925 45.1839C157.085 45.0054 157.282 44.865 157.503 44.773C157.724 44.681 157.963 44.6398 158.202 44.6524C158.462 44.6442 158.722 44.6902 158.964 44.7874C159.143 44.8629 159.308 44.97 159.449 45.1035C159.558 45.2042 159.648 45.3239 159.714 45.4569C159.769 45.5747 159.803 45.6609 159.823 45.7126H159.84C159.856 45.6057 159.886 45.5013 159.93 45.4023C159.985 45.2847 160.063 45.1793 160.16 45.092C160.28 44.9881 160.418 44.9073 160.568 44.8535C160.772 44.7873 160.986 44.7562 161.2 44.7615C161.545 44.7643 161.89 44.7355 162.229 44.6753C162.469 44.6462 162.697 44.5551 162.891 44.411V45.6149C162.751 45.6986 162.593 45.7497 162.431 45.7643C162.264 45.7787 162.103 45.7844 161.945 45.7844C161.691 45.7824 161.437 45.8007 161.186 45.839C160.997 45.8672 160.816 45.9347 160.654 46.0372C160.513 46.1329 160.405 46.2692 160.344 46.428C160.271 46.6317 160.238 46.8471 160.246 47.063V48.7179H162.891V49.8414H156.465ZM159.389 48.7179V46.8733C159.411 46.5778 159.319 46.2851 159.133 46.0545C159.033 45.9548 158.913 45.8777 158.78 45.8281C158.648 45.7786 158.507 45.7578 158.366 45.7672C158.194 45.7613 158.024 45.7927 157.865 45.8591C157.743 45.911 157.639 45.9967 157.564 46.1062C157.49 46.2139 157.441 46.3365 157.42 46.4654C157.397 46.603 157.385 46.7424 157.385 46.882V48.7093L159.389 48.7179Z" fill="#4429E8"/>
<path d="M156.313 39.9662C156.306 39.5214 156.398 39.0806 156.583 38.6761C156.756 38.3073 157.004 37.9785 157.311 37.7107C157.626 37.4421 157.99 37.2364 158.383 37.1045C159.222 36.8235 160.131 36.8235 160.97 37.1045C161.363 37.2357 161.728 37.4416 162.043 37.7107C162.35 37.9777 162.597 38.3067 162.767 38.6761C162.942 39.0848 163.032 39.5246 163.032 39.9691C163.032 40.4135 162.942 40.8534 162.767 41.262C162.597 41.6314 162.35 41.9605 162.043 42.2274C161.728 42.4966 161.363 42.7024 160.97 42.8336C160.131 43.1146 159.222 43.1146 158.383 42.8336C157.99 42.7018 157.626 42.496 157.311 42.2274C157.004 41.9596 156.756 41.6308 156.583 41.262C156.397 40.8557 156.305 40.4129 156.313 39.9662ZM157.23 39.9662C157.222 40.2749 157.293 40.5806 157.437 40.854C157.571 41.0971 157.762 41.3049 157.992 41.4603C158.233 41.62 158.499 41.7375 158.78 41.8079C159.37 41.9573 159.989 41.9573 160.579 41.8079C160.859 41.7365 161.126 41.619 161.367 41.4603C161.596 41.3047 161.786 41.0969 161.919 40.854C162.055 40.5782 162.125 40.2749 162.125 39.9676C162.125 39.6603 162.055 39.3571 161.919 39.0813C161.786 38.8383 161.596 38.6306 161.367 38.475C161.126 38.3163 160.859 38.1988 160.579 38.1274C159.989 37.978 159.37 37.978 158.78 38.1274C158.497 38.2018 158.23 38.3243 157.989 38.4894C157.759 38.6447 157.569 38.8525 157.434 39.0956C157.294 39.3641 157.224 39.6635 157.23 39.9662Z" fill="#4429E8"/>
<path d="M156.465 35.1306V34.0043H160.203C160.423 34.0051 160.642 33.9946 160.861 33.9727C161.071 33.9555 161.274 33.8948 161.459 33.7946C161.644 33.6877 161.795 33.5315 161.896 33.3435C162.008 33.0744 162.066 32.7858 162.066 32.4944C162.066 32.203 162.008 31.9145 161.896 31.6454C161.795 31.4574 161.644 31.3012 161.459 31.1943C161.275 31.0954 161.072 31.0357 160.864 31.0191C160.645 30.9972 160.425 30.9866 160.206 30.9874H156.468V29.8698H160.576C160.945 29.862 161.311 29.9255 161.655 30.0565C161.949 30.1739 162.213 30.3578 162.425 30.5938C162.638 30.8334 162.796 31.1169 162.888 31.4242C163.091 32.1291 163.091 32.877 162.888 33.5819C162.796 33.8898 162.638 34.1741 162.425 34.4152C162.212 34.6495 161.949 34.8323 161.655 34.9496C161.311 35.0831 160.945 35.1475 160.576 35.1392L156.465 35.1306Z" fill="#4429E8"/>
<path d="M156.465 27.7551V24.9221C156.451 24.5406 156.519 24.1606 156.664 23.8073C156.774 23.5503 156.943 23.3229 157.158 23.1436C157.348 22.9896 157.57 22.8806 157.808 22.8247C158.23 22.7097 158.676 22.7097 159.099 22.8247C159.334 22.8819 159.554 22.9908 159.743 23.1436C159.956 23.3225 160.124 23.5501 160.231 23.8073C160.372 24.1615 160.438 24.5412 160.424 24.9221V26.646H162.891V27.7694L156.465 27.7551ZM159.507 26.6316V24.9853C159.506 24.8551 159.488 24.7255 159.452 24.6003C159.418 24.4684 159.358 24.3445 159.277 24.2354C159.193 24.1202 159.083 24.0274 158.955 23.9653C158.796 23.8912 158.621 23.8558 158.446 23.8619C158.267 23.8572 158.09 23.8874 157.923 23.951C157.795 24.0034 157.682 24.0874 157.595 24.1952C157.514 24.2982 157.457 24.4179 157.428 24.5457C157.399 24.6845 157.384 24.8261 157.385 24.9681V26.6316H159.507Z" fill="#4429E8"/>
<path d="M83.7251 22.4857H90.0498V45.0805H83.7251V22.4857Z" fill="#4429E8"/>
<path d="M104.054 22.4857H110.007V45.0805H103.231L99.7154 31.157H99.6521V45.0805H93.8794V22.4857H100.75L103.979 36.277H104.042L104.054 22.4857Z" fill="#4429E8"/>
<path d="M124.413 22.4857H130.367V45.0805H123.591L120.075 31.157H120.012V45.0805H114.262V22.4857H121.133L124.362 36.277H124.425L124.413 22.4857Z" fill="#4429E8"/>
<path d="M133.946 33.7831C133.946 32.0305 133.989 30.432 134.073 28.9877C134.116 27.7073 134.418 26.4487 134.958 25.2871C135.481 24.2453 136.333 23.405 137.382 22.8966C138.49 22.3219 140.056 22.0346 142.082 22.0346C144.108 22.0346 145.676 22.3219 146.786 22.8966C147.833 23.4059 148.684 24.246 149.206 25.2871C149.748 26.4485 150.05 27.7071 150.095 28.9877C150.179 30.432 150.221 32.0305 150.221 33.7831C150.221 35.599 150.179 37.2271 150.095 38.6676C150.051 39.9438 149.749 41.1979 149.206 42.3539C148.683 43.3824 147.831 44.2067 146.786 44.6955C145.676 45.2453 144.108 45.5192 142.082 45.5173C140.056 45.5153 138.49 45.2414 137.382 44.6955C136.335 44.2072 135.482 43.3829 134.958 42.3539C134.417 41.1977 134.115 39.9436 134.073 38.6676C133.987 37.2271 133.944 35.599 133.946 33.7831ZM143.698 33.7831C143.698 32.1377 143.677 30.8141 143.635 29.8124C143.618 29.0409 143.538 28.2722 143.396 27.5138C143.349 27.1228 143.178 26.7572 142.907 26.4708C142.664 26.3059 142.377 26.2178 142.084 26.2178C141.79 26.2178 141.503 26.3059 141.26 26.4708C140.988 26.7561 140.815 27.1221 140.768 27.5138C140.627 28.2723 140.548 29.041 140.533 29.8124C140.491 30.8161 140.469 32.1396 140.469 33.7831C140.469 35.4266 140.491 36.7502 140.533 37.7539C140.548 38.5252 140.627 39.2939 140.768 40.0524C140.815 40.4441 140.988 40.8101 141.26 41.0954C141.503 41.2603 141.79 41.3485 142.084 41.3485C142.377 41.3485 142.664 41.2603 142.907 41.0954C143.178 40.809 143.349 40.4434 143.396 40.0524C143.538 39.2941 143.618 38.5253 143.635 37.7539C143.679 36.754 143.7 35.4304 143.698 33.7831Z" fill="#4429E8"/>
<path d="M83.8169 48.4191H89.4891V50.5568H86.4589V52.0078H89.2936V54.065H86.4589V57.8346H83.8169V48.4191Z" fill="#4429E8"/>
<path d="M97.5791 53.1427C97.5791 52.4129 97.5973 51.7472 97.6337 51.1458C97.6517 50.612 97.7768 50.0873 98.0017 49.6029C98.2205 49.1696 98.5748 48.8196 99.0108 48.6059C100.274 48.1309 101.666 48.1309 102.929 48.6059C103.366 48.8178 103.721 49.1684 103.938 49.6029C104.166 50.0866 104.292 50.6116 104.309 51.1458C104.344 51.7453 104.361 52.4109 104.361 53.1427C104.361 53.8744 104.344 54.5534 104.309 55.1798C104.292 55.7112 104.166 56.2335 103.938 56.714C103.722 57.1441 103.366 57.4883 102.929 57.6909C101.663 58.1468 100.277 58.1468 99.0108 57.6909C98.575 57.4867 98.2199 57.1429 98.0017 56.714C97.7765 56.2328 97.6513 55.7108 97.6337 55.1798C97.5973 54.5668 97.5791 53.8878 97.5791 53.1427ZM101.641 53.1427C101.641 52.4569 101.633 51.9053 101.615 51.4877C101.608 51.1665 101.575 50.8465 101.515 50.5309C101.495 50.3681 101.424 50.2159 101.311 50.0971C101.213 50.022 101.092 49.9843 100.969 49.9907C100.845 49.9849 100.723 50.0225 100.624 50.0971C100.512 50.2166 100.44 50.3684 100.419 50.5309C100.362 50.8468 100.33 51.1667 100.322 51.4877C100.304 51.9033 100.296 52.455 100.296 53.1427C100.296 53.8293 100.296 54.3781 100.322 54.7976C100.33 55.1186 100.362 55.4385 100.419 55.7544C100.44 55.9169 100.512 56.0687 100.624 56.1883C100.723 56.2628 100.845 56.3004 100.969 56.2946C101.092 56.301 101.213 56.2633 101.311 56.1883C101.424 56.0694 101.495 55.9172 101.515 55.7544C101.575 55.4388 101.608 55.1188 101.615 54.7976C101.641 54.3638 101.641 53.815 101.641 53.1427Z" fill="#4429E8"/>
<path d="M112.805 48.4191H116.763C117.675 48.4191 118.333 48.6346 118.738 49.0599C119.175 49.5648 119.395 50.2213 119.351 50.8872C119.357 51.2141 119.317 51.5402 119.23 51.8555C119.164 52.0971 119.055 52.3248 118.908 52.5278C118.778 52.7045 118.608 52.849 118.414 52.9502C118.215 53.0527 118.002 53.1217 117.781 53.1542V53.18C118.038 53.1966 118.288 53.2713 118.511 53.3984C118.734 53.5224 118.915 53.708 119.035 53.9328C119.163 54.163 119.237 54.4196 119.25 54.6827C119.273 54.9701 119.285 55.2574 119.285 55.5447V56.3233C119.285 56.5848 119.285 56.8175 119.316 57.0215C119.325 57.161 119.354 57.2984 119.403 57.4295C119.429 57.494 119.468 57.5526 119.518 57.6019C119.567 57.6512 119.625 57.6903 119.69 57.7168V57.849H116.907C116.855 57.7791 116.819 57.6987 116.801 57.6134C116.773 57.4981 116.754 57.381 116.743 57.2629C116.728 57.1365 116.719 57.0043 116.717 56.8664C116.717 56.7313 116.717 56.6049 116.717 56.4929C116.717 56.263 116.717 56.0303 116.697 55.7918C116.677 55.5533 116.68 55.3235 116.68 55.0936C116.68 54.6885 116.614 54.4299 116.487 54.315C116.336 54.1941 116.146 54.1336 115.953 54.1454H115.441V57.849H112.802L112.805 48.4191ZM115.441 52.3899H115.823C115.933 52.39 116.043 52.3745 116.148 52.3439C116.256 52.3127 116.355 52.2555 116.436 52.1773C116.53 52.0833 116.6 51.9679 116.64 51.8411C116.697 51.6601 116.723 51.4706 116.717 51.2809C116.737 51.141 116.723 50.9986 116.678 50.8649C116.632 50.7313 116.556 50.61 116.456 50.5108C116.244 50.3736 115.995 50.3063 115.743 50.3183H115.441V52.3899Z" fill="#4429E8"/>
<path d="M131.764 51.1315C131.764 51.0252 131.764 50.9074 131.764 50.7752C131.759 50.6478 131.739 50.5214 131.704 50.3988C131.673 50.2872 131.617 50.184 131.54 50.0971C131.501 50.0547 131.452 50.0214 131.399 49.9995C131.345 49.9777 131.287 49.9679 131.23 49.9707C131.086 49.9614 130.943 50.0031 130.827 50.0885C130.711 50.2152 130.638 50.375 130.617 50.5453C130.56 50.86 130.531 51.1793 130.531 51.4992C130.531 51.913 130.517 52.4532 130.517 53.1226C130.517 53.7921 130.517 54.3581 130.537 54.7776C130.54 55.0985 130.571 55.4186 130.629 55.7343C130.648 55.9001 130.726 56.0538 130.847 56.1682C130.96 56.2441 131.094 56.2814 131.23 56.2745C131.334 56.2729 131.435 56.2372 131.517 56.1728C131.599 56.1085 131.657 56.0191 131.684 55.9182C131.8 55.5152 131.847 55.0957 131.825 54.677V53.953H134.383V54.5448C134.39 55.0406 134.332 55.5352 134.211 56.0159C134.11 56.4161 133.921 56.7883 133.656 57.1049C133.39 57.4125 133.05 57.6461 132.667 57.7829C132.192 57.9484 131.692 58.0263 131.189 58.0128C130.519 58.0465 129.85 57.9297 129.232 57.6709C128.795 57.4683 128.439 57.124 128.222 56.694C127.995 56.2134 127.869 55.6911 127.852 55.1597C127.819 54.5602 127.803 53.8878 127.803 53.1427C127.803 52.3976 127.82 51.732 127.854 51.1458C127.872 50.6117 127.998 50.0867 128.225 49.6029C128.442 49.1684 128.797 48.8179 129.234 48.6059C129.851 48.3374 130.521 48.2154 131.192 48.2497C131.762 48.2275 132.331 48.3153 132.868 48.5082C133.239 48.6474 133.567 48.8812 133.82 49.1863C134.038 49.4651 134.182 49.7941 134.24 50.1431C134.302 50.5017 134.333 50.8651 134.332 51.2292V51.9159H131.773L131.764 51.1315Z" fill="#4429E8"/>
<path d="M142.77 48.4191H148.442V50.5568H145.409V52.0078H148.243V54.065H145.409V55.6998H148.571V57.8346H142.77V48.4191Z" fill="#4429E8"/>
<path d="M25.4772 3.45935L14.9321 9.54766V67.9857L25.4801 74.0654L76.1153 44.8564V32.6798L25.4772 3.45935ZM65.1505 27.123L55.7439 32.5534L46.3315 27.123L55.741 21.6927L65.1505 27.123ZM55.0683 32.9441L45.8687 38.2481V27.6373L55.0683 32.9441ZM55.0683 21.3048L45.6473 26.738L36.235 21.3048L45.6445 15.8744L55.0683 21.3048ZM45.0062 15.4751L35.5824 20.9054L26.1672 15.4751L35.5766 10.0447L45.0062 15.4751ZM25.7072 26.8616V16.0009L35.1166 21.4312V32.289L25.7072 26.8616ZM34.9068 32.9441L25.7072 38.2481V27.6373L34.9068 32.9441ZM25.0172 73.0253L15.6049 67.5892V56.7342L25.0172 62.1674V73.0253ZM25.0172 61.3859L15.6049 55.9527V45.0978L25.0172 50.5224V61.3859ZM25.0172 49.7466L15.6049 44.3134V33.4584L25.0172 38.883V49.7466ZM25.0172 38.1101L15.6049 32.674V21.8248L25.0172 27.2523V38.1101ZM25.0172 26.4708L15.6049 21.0347V10.1798L25.0172 15.6101V26.4708ZM25.4772 15.0987L16.0648 9.66546L25.4743 4.23511L34.8838 9.66546L25.4772 15.0987ZM35.0965 67.7213L25.6842 73.1517V62.2939L35.0965 56.8606V67.7213ZM35.1109 56.1021L25.6985 61.5296V50.6746L35.1109 45.2414V56.1021ZM35.1109 44.4542L25.6985 49.8816V39.0267L35.1109 33.605V44.4542ZM35.775 21.8248L45.1873 27.2609V38.1159L35.775 32.6769V21.8248ZM35.775 45.0978L44.9746 50.4046L35.775 55.7085V45.0978ZM45.1988 61.9175L35.7894 67.3449V56.4871L45.1988 51.0539V61.9175ZM36.2379 44.5748L45.6502 39.1416L55.0683 44.5748L45.6617 50.0052L36.2379 44.5748ZM55.2667 56.0877L45.8687 61.5152V50.6603L55.2782 45.2271L55.2667 56.0877ZM46.3229 38.7767L55.7353 33.3464L65.1447 38.7767L55.7381 44.2099L46.3229 38.7767ZM65.3604 50.2954L55.9509 55.7286V44.8564L65.3604 39.4232V50.2954ZM56.408 32.9527L65.8203 27.5195L75.2298 32.9527L65.8232 38.3831L56.408 32.9527ZM75.4397 44.4685L66.0302 49.8989V39.0296L75.4397 33.605V44.4685Z" fill="#4429E8"/>
</svg>
