<svg xmlns="http://www.w3.org/2000/svg" xmlns:xlink="http://www.w3.org/1999/xlink" version="1.1" id="Layer_1" x="0px" y="0px" viewBox="0 0 1172.4 312" style="enable-background:new 0 0 1172.4 312;" xml:space="preserve">
<style type="text/css">
	.st0{fill:#0081B9;}
	.st1{fill:#0081B9;stroke:#0081B9;stroke-width:0.75;stroke-miterlimit:10;}
</style>
<g id="XMLID_102_">
	<g id="XMLID_30_">
		<path id="XMLID_48_" class="st0" d="M784.7,108.6c0.4-6.4,0.7-12,1-17.7c6.5,0,12.7,0,18.9,0c-0.3,9.4-0.7,18.5-0.7,27.7    c-0.1,26-0.1,52.1-0.2,78.1c0,9.2-1.1,18.4-3.7,27.3c-4.6,15.8-14.8,26.6-30.3,31.7c-20.5,6.7-40.9,5.6-60.9-2.7    c-5.4-2.2-5.3-2.4-3.5-8c1.2-3.7,2.5-7.3,3.5-10.4c7.4,2.4,14.4,5.1,21.6,6.9c7.8,1.9,15.8,1.9,23.8,0.4    c13-2.5,21.7-9.9,25.8-22.6c3.2-9.8,2.4-19.9,2.4-30.9c-4.5,6.6-9.4,11.4-15.7,14.7c-20.1,10.4-49.4,6.5-64.5-18.6    c-14-23.2-11.3-58.1,6.4-78.6c13.9-16.2,37.1-22.2,56.4-14.6C772.9,94.3,778.2,98.9,784.7,108.6z M782.2,147.7c0-3.7,0-7.4,0-11.1    c0-13-8-24.9-19.8-29.5c-12.3-4.8-26.7-1.5-35.5,8.1c-7.7,8.4-10.7,18.7-11.4,29.8s0.8,21.9,6.8,31.6    c7.2,11.8,20.8,17.5,34.4,14.7c12.9-2.6,23.1-13.2,24.8-26.8C782.4,159,782.1,147.7,782.2,147.7z"/>
		<path id="XMLID_47_" class="st0" d="M941.2,208.6c-7.4,0-14.5,0-21.9,0c0-1.2,0-2.3,0-3.3c0-21.9,0.1-43.9-0.1-65.8    c0-4.6-0.7-9.2-1.8-13.6c-4.5-16.9-20.6-24.7-36.6-17.7c-12.6,5.5-19.3,15.4-19.4,29.4c-0.1,22.4,0,44.9,0,67.3c0,1.1,0,2.2,0,3.6    c-7.3,0-14.4,0-21.7,0c0-57.4,0-115,0-172.7c7,0,14.1,0,21.6,0c0,24.3,0,48.6,0,72.8c4.8-6.7,10.6-11.8,17.7-15.5    c26-13.5,54.8,0.2,60.5,29c1,5.3,1.6,10.8,1.6,16.1c0.2,22.2,0.1,44.5,0.1,66.7C941.2,206,941.2,207.2,941.2,208.6z"/>
		<path id="XMLID_46_" class="st0" d="M432.1,208.6c-7.5,0-14.5,0-22.2,0c0-39.2,0-78.3,0-117.7c5.7,0,12,0,18.6,0    c0.4,6.2,0.9,12.5,1.3,19.4c0.9-1.3,1.4-2.1,2-3c14.6-22.3,49-26.1,67.1-7.4c7.4,7.6,10.8,17,12.1,27.3c0.6,4.5,0.7,9,0.7,13.5    c0.1,21.4,0,42.8,0,64.3c0,1.1,0,2.2,0,3.6c-7.2,0-14.3,0-21.7,0c0-1.1,0-2.2,0-3.3c0-20.9,0.1-41.8-0.1-62.7    c0-5.2-0.6-10.5-1.7-15.5c-5.4-24.7-31.4-25.1-44.1-14.6c-7.9,6.5-12.1,14.8-12.1,25.1c0,22.5,0,45.1,0,67.6    C432.1,206.2,432.1,207.3,432.1,208.6z"/>
		<path id="XMLID_45_" class="st0" d="M1117.1,111.1c-6.8-3.9-13.7-6.1-21.2-6.7c-5.2-0.4-10.2,0.1-14.9,2.6    c-10.1,5.4-11.3,18.9-1.8,25.3c5.1,3.4,11,5.7,16.8,8.1c7.6,3.2,15.1,6.4,21.1,12.3c15.2,14.9,12.3,40.4-5.8,51.7    c-9,5.6-19,7.3-29.4,7.3c-11-0.1-21.5-2.2-31.4-7.3c-0.6-0.3-1.2-0.7-1.9-1.2c1.8-5.4,3.5-10.7,5.2-15.9c4.9,2,9.5,4.2,14.3,5.7    c8.1,2.6,16.5,3.4,24.8,0.9c6.8-2,11.5-6.3,12.6-13.6c1.1-7.1-1.4-13.1-7.5-16.9c-4.4-2.8-9.2-5-14-6.9c-7-2.8-13.8-5.7-19.8-10.3    c-18.5-14.2-14-37.8-0.3-48.8c6.7-5.4,14.4-8.1,22.8-9c11.5-1.2,22.6,0.6,33.2,5.5c1.9,0.9,2.8,1.8,1.8,4.1    C1120,102.1,1118.7,106.5,1117.1,111.1z"/>
		<path id="XMLID_44_" class="st0" d="M612.5,95.4c-1.8,5.2-3.6,10.3-5.2,15c-5.6-1.8-10.9-3.9-16.4-5.3c-5.5-1.3-11.2-1.4-16.7,0.4    c-8.6,2.8-13.2,10.7-10.9,18.9c1.1,4,3.7,6.9,7.2,8.8c5,2.7,10.4,4.8,15.5,7.3c5.5,2.7,11.2,5.1,16.3,8.4    c20.9,13.3,18.5,45.7-3.6,56.9c-8.8,4.4-18.2,6-27.9,5.8c-10.1-0.2-19.9-2.3-29.1-6.6c-2.5-1.1-3.4-2.3-2.3-5    c1.7-4.2,2.9-8.5,4.5-13c0.9,0.4,1.7,0.8,2.4,1.2c10.8,5.6,22.1,8.7,34.3,6.3c10.6-2.1,16-9.6,14.7-19.8c-0.6-4.8-3-8.6-7.1-11    c-5-2.9-10.4-5.2-15.6-7.8c-5.7-2.9-11.8-5.3-17.1-8.9c-21.6-14.8-15.3-41.9,1.9-52.3c10.2-6.2,21.3-7.5,32.8-6.3    C598.1,89.2,605.6,91.4,612.5,95.4z"/>
		<path id="XMLID_43_" class="st0" d="M1002.2,107.1c-0.3,0.5-0.4,0.6-0.4,0.7c0,22.8,0,45.7,0.1,68.5c0,2.1,0.6,4.3,1.2,6.3    c2,7.2,6.6,10.8,14.1,10.9c4.4,0,8.7-0.5,13.2-0.8c0.1,0.3,0.3,0.6,0.3,1c0.3,4.8,0.5,9.6,0.8,14.7c-10.6,3.3-21.2,4.7-31.9,1    c-8-2.8-13.6-8.3-16.3-16.4c-1.1-3.4-1.9-6.9-2.3-10.4c-0.5-4.4-0.6-8.8-0.7-13.2c-0.1-19.6,0-39.1,0-58.7c0-1.1,0-2.2,0-3.5    c-6.2,0-12.1,0-18.2,0c0-5.5,0-10.9,0-16.5c5.9,0,11.8,0,18,0c0-7.3,0-14.4,0-21.8c7.2-2.2,14.2-4.4,21.5-6.7c0,9.5,0,18.7,0,28.2    c10.4,0,20.6,0,30.9,0c0,5.7,0,10.9,0,16.5C1022.3,107.1,1012.2,107.1,1002.2,107.1z"/>
		<path id="XMLID_42_" class="st0" d="M374.3,90.9c0,39.3,0,78.4,0,117.7c-7.2,0-14.3,0-21.6,0c0-39.2,0-78.3,0-117.7    C359.8,90.9,366.9,90.9,374.3,90.9z"/>
		<path id="XMLID_41_" class="st0" d="M644.6,90.8c7.2,0,14.2,0,21.3,0c0,39.3,0,78.4,0,117.8c-7.1,0-14.1,0-21.3,0    C644.6,169.4,644.6,130.2,644.6,90.8z"/>
		<path id="XMLID_40_" class="st0" d="M349.8,57.4c0.1-7.8,5.9-13.4,13.8-13.3s13.3,5.8,13.2,13.8c-0.1,7.7-6,13.1-14.2,12.9    C355.3,70.8,349.8,65,349.8,57.4z"/>
		<path id="XMLID_39_" class="st0" d="M668.6,57.8c0,7.9-5.5,13.2-13.8,13.1c-7.5,0-13.2-5.8-13.2-13.3c0-7.7,5.9-13.5,13.7-13.5    C663.3,44.1,668.6,49.6,668.6,57.8z"/>
	</g>
	<path id="XMLID_38_" class="st0" d="M23,82.9c10.5-9.4,21.2-13.3,36-10.6c15.1,2.2,28.8,8.6,41.9,16c18,10,35.7,20.6,53.6,30.6   c6.3,3.6,13,6.5,19.5,9.7c1.8,0.9,2.8,2,3.3,4c4.2,17.6,5,35.4,4.1,53.4c-0.6,11.6-2.4,23.1-5.7,34.4c-0.6,3.6-1.2,4.7-3.9,4.2   c-23.9-4.3-47.9-12.2-71.1-19.1c-9.8-2.9-19.2-5.9-29.2-7.8c-4.8-0.9-29.5-3.3-33.2,19.9c-3.1,16.8,2,31.7,11.7,45.3   c11.4,16,27.6,22.9,46.4,23.7c33.6,1.3,56.5-15.1,72.7-43.6c8.2-14.3,13-29.6,14.3-46c1-12,1.5-23.9,0.7-35.8   c-2.8-42.7-17.7-79.3-48.1-110.1c-11-11.1-23-19.8-38.3-24c-10.4-2.9-21.6-0.8-29.2,2.3c-0.7,0.3-9.2,4.7-9.2,4.7   c13.9-12.5,32-24.4,59.8-29.6c16-3,31.9-5.5,48.1-4.2C203.8,3.1,236,16.6,263,41.9c17.4,16.3,30.7,35.4,38.9,57.8   c20.8,65.7-19.6,98.7-20.4,99.4c0-3,2.9-44-16.4-82c-0.5-1.2-0.8-3.1-0.4-4.2c22.6-51-37.4-116.2-103.5-105.8   c-2.9,0.5,1.7,4.6,3.8,6.1c9.1,6.5,18.5,12.5,27.4,19.3c26.6,20.2,49,44.1,64.9,73.7c10.9,20.2,18.2,41.7,20.8,64.5   c4.5,39.6-6.3,74.7-33.9,103.8c-19,20-42.8,33.2-70.1,36.4c-53.9,6-100.1-13-136-53.1C19.1,236.6,7.8,211,2.5,183   C-6.1,137.9,8.8,95.7,23,82.9z"/>
	<path id="XMLID_37_" d="M1158.7,76.8"/>
	<path id="XMLID_34_" class="st1" d="M1140.3,84.8c0.3-9.3,7.2-16,16.1-16s16,6.7,16,16c0,9-6.8,16.1-16,16.1   C1147.1,100.9,1140.6,93.7,1140.3,84.8z M1169.7,84.8c0.1-7.6-6.2-13.4-13.4-13.4c-7.2,0-13.4,5.9-13.4,13.4   c0,7.2,5.9,13.3,13.3,13.4C1163.9,98.3,1169.8,92,1169.7,84.8z"/>
	<path id="XMLID_31_" class="st1" d="M1163.6,92.3c-1.2,0-2.2,0-3.3,0c-0.2,0-0.5-0.4-0.5-0.6c-0.1-0.9-0.1-1.9-0.2-2.8   c0-0.5-0.1-0.9-0.2-1.3c-0.1-0.6-0.6-1-1.2-1.1c-1.5-0.1-3,0-4.5,0c0,1.9,0,3.9,0,5.9c-1.1,0-2.1,0-3.1,0c0-5.1,0-10.2,0-15.3   c0.1,0,0.2-0.1,0.3-0.1c2.8,0,5.5,0,8.3,0.1c1.6,0.1,3,0.8,3.6,2.3c0.7,1.7,0.6,3.3-0.7,4.8c-0.3,0.3-0.7,0.6-1.1,0.9   c0.1,0,0.2,0.1,0.3,0.2c1,0.5,1.4,1.4,1.4,2.4c0.1,1,0.1,1.9,0.1,2.9c0,0.5,0.1,1,0.5,1.4C1163.6,91.9,1163.6,92,1163.6,92.3z    M1153.9,79.5c0,1.4,0,2.8,0,4.1c1.6,0,3.1,0.1,4.6,0c1.3-0.1,1.7-1,1.6-2.3c0-0.9-0.8-1.7-1.8-1.8   C1156.8,79.5,1155.4,79.5,1153.9,79.5z"/>
</g>
</svg>