<svg xmlns="http://www.w3.org/2000/svg" version="1.1" id="Layer_1" x="0" y="0" viewBox="0 0 387 72" xml:space="preserve"><style>.st0{fill:#322882}.st1{fill:#1eb4eb}</style><g id="Laag_2"><g id="ontwerp"><path class="st0" d="M186.8,45.4c-4.8,0.1-9.6-0.7-14.1-2.4c-4.5,6.3-11.2,11.6-19.4,15.3c2.8,0.5,5.7,0.7,8.5,0.7 c15,0,28.8-5.6,36.8-14.8C194.8,45,190.8,45.4,186.8,45.4z"/><path class="st1" d="M178.7,21.7c6.9-1.9,13.4-7,20.2-10.8C192.5,4.8,182.4,1,170.6,1c-0.9,0-1.8,0-2.6,0.1 C174,7,177.9,14.1,178.7,21.7z"/><path class="st0" d="M172.7,43c3-4.1,5-8.8,5.8-13.8c0.4-2.5,0.4-5,0.2-7.5c-1.7,0.5-3.5,0.7-5.3,0.8c-10.9,0-19.4-11-19.4-11 C151.9,20.3,156.5,36.8,172.7,43z"/><path class="st1" d="M213.5,6.2c-5.2,0-10,2-14.6,4.6c5.3,5.1,7.9,11.7,6.7,19c-0.9,5.3-3.3,10.3-6.9,14.4 c16.9-3.4,28.3-13.7,28.9-22.9C228,14.2,224.5,6.2,213.5,6.2z M216,19.2c-1.3,0-2.4-1.1-2.4-2.4s1.1-2.4,2.4-2.4 c1.3,0,2.4,1.1,2.4,2.4C218.3,18.2,217.3,19.2,216,19.2L216,19.2z"/><path class="st0" d="M227.6 19.2c0 .7 0 1.4 0 2.2-.1 1.6-.5 3.1-1.1 4.5l7.4-3.5L227.6 19.2zM0 22.5h10.6v4.8h.1c.4-.8.9-1.4 1.5-2.1.7-.7 1.4-1.3 2.3-1.8.9-.6 1.9-1 3-1.3 1.2-.3 2.4-.5 3.7-.5 2.3 0 4.6.5 6.6 1.5 2 1.1 3.5 2.8 4.4 4.9 1-2.1 2.6-3.8 4.6-4.9 2.1-1 4.4-1.5 6.7-1.5 2.1-.1 4.1.4 6 1.2 1.6.7 2.9 1.9 3.9 3.3 1 1.5 1.7 3.1 2.1 4.9.4 2 .6 4 .6 6.1v21.1H45V37.4c0-1.5-.3-3-1-4.3-.8-1.3-2.3-2-3.8-1.8-1.1 0-2.2.2-3.2.6-.8.4-1.5 1-2 1.7-.5.8-.9 1.6-1.1 2.6-.2 1-.3 2-.3 3.1v18.9h-11V39.3c0-.6 0-1.4-.1-2.3 0-.9-.2-1.8-.5-2.6-.3-.8-.8-1.6-1.4-2.1-.8-.6-1.9-1-2.9-.9-1.2-.1-2.4.2-3.4.8-.8.5-1.5 1.2-2 2C11.7 35 11.4 36 11.3 37c-.2 1.1-.3 2.2-.3 3.4v17.8H0V22.5zM87.7 33c-1.5-2-3.9-3.1-6.4-3-.9 0-1.9.2-2.7.7-.9.4-1.4 1.3-1.3 2.3 0 .9.5 1.7 1.4 2 1.1.5 2.3.8 3.4 1.1l4.5 1c1.6.3 3.1.9 4.5 1.7 1.4.8 2.6 1.9 3.4 3.2 1 1.6 1.4 3.5 1.3 5.4.1 2-.4 4-1.5 5.7-1 1.5-2.3 2.7-3.8 3.6-1.6.9-3.4 1.6-5.3 1.9-1.9.4-3.9.5-5.8.5-2.6 0-5.1-.4-7.6-1-2.5-.7-4.7-2-6.4-3.8l6.6-7.5c.9 1.2 2.1 2.2 3.4 2.9 1.3.7 2.8 1 4.4 1 1.2 0 2.3-.2 3.4-.5.9-.2 1.6-1.1 1.5-2 0-.9-.5-1.7-1.3-2.1-1.1-.5-2.3-.9-3.4-1.2l-4.5-1c-1.6-.4-3.1-.9-4.5-1.7-1.4-.7-2.6-1.8-3.4-3.2-1-1.6-1.5-3.5-1.4-5.4-.1-1.9.4-3.8 1.3-5.4.8-1.5 2-2.8 3.4-3.7 1.5-1 3.1-1.7 4.8-2.2 1.8-.5 3.6-.7 5.5-.7 2.4 0 4.8.3 7.1 1 2.3.6 4.4 1.9 6.1 3.7L87.7 33zM142.6 71h-11V54.3h-.1c-1.2 1.7-2.9 3-4.9 3.7-2.1.7-4.2 1-6.4 1-2.4 0-4.7-.5-6.8-1.6-2-1-3.7-2.5-5.1-4.2-1.4-1.8-2.5-3.9-3.2-6-.8-2.3-1.2-4.7-1.2-7.2 0-2.5.4-5 1.2-7.4.8-2.2 2-4.2 3.6-5.8 1.6-1.6 3.4-2.9 5.5-3.8 2.3-.9 4.7-1.4 7.2-1.4 1.2 0 2.4.2 3.6.5 1.1.3 2.2.8 3.2 1.3.9.5 1.7 1.1 2.5 1.8.6.6 1.2 1.2 1.7 1.9h.1v-4.7h10.1V71zM132.4 40.3c.1-2.4-.7-4.7-2.3-6.5-3.7-3.3-9.3-3.3-13 0-1.6 1.8-2.4 4.1-2.3 6.5-.1 2.4.7 4.7 2.3 6.5 3.7 3.3 9.3 3.3 13 0C131.7 45 132.5 42.7 132.4 40.3z"/><path class="st1" d="M253.5 37.6c-1.1 0-2.1-.2-3.1-.6-.9-.4-1.7-.9-2.4-1.6-.7-.7-1.2-1.6-1.6-2.5-.8-2-.8-4.2 0-6.2.4-.9.9-1.8 1.6-2.5.7-.7 1.5-1.3 2.4-1.6 2-.8 4.2-.8 6.2 0 .9.4 1.7.9 2.4 1.6.7.7 1.2 1.5 1.6 2.5.8 2 .8 4.2 0 6.2-.4.9-.9 1.8-1.6 2.5-.7.7-1.5 1.2-2.5 1.6C255.7 37.4 254.6 37.6 253.5 37.6zM253.5 35.7c.8 0 1.6-.1 2.3-.5.7-.3 1.3-.7 1.8-1.3.5-.5.9-1.2 1.1-1.9.5-1.5.5-3.1 0-4.6-.2-.7-.6-1.3-1.1-1.9-1-1.1-2.5-1.8-4.1-1.7-1.5 0-3 .6-4.1 1.7-.5.5-.9 1.2-1.1 1.9-.5 1.5-.5 3.1 0 4.6.3.7.6 1.3 1.1 1.9.5.5 1.1 1 1.8 1.3C251.9 35.6 252.7 35.8 253.5 35.7zM264.1 27.3h1.9v1.5l0 0c.3-.6.7-1 1.2-1.3.6-.3 1.3-.5 2-.5.5 0 .9.1 1.4.2.4.1.8.4 1.1.7.3.3.6.7.8 1.2.2.5.3 1.1.3 1.7v6.4H271v-5.9c0-.4-.1-.8-.2-1.2-.1-.3-.3-.6-.5-.8-.2-.2-.4-.4-.7-.4-.3-.1-.6-.1-.9-.1-.4 0-.7.1-1.1.2-.3.1-.6.3-.9.6-.3.3-.5.6-.6 1-.1.5-.2 1-.2 1.5v5.1h-1.9L264.1 27.3zM286.1 37.2h-1.9v-1.4l0 0c-.4.5-.9 1-1.5 1.2-.6.3-1.3.4-2 .4-.7 0-1.4-.1-2.1-.4-.6-.2-1.2-.6-1.6-1.1-.4-.5-.8-1-1-1.7-.2-.7-.4-1.4-.4-2 0-.7.1-1.4.4-2.1.2-.6.6-1.2 1-1.6.4-.5 1-.8 1.6-1.1.7-.3 1.4-.4 2.1-.4.7 0 1.4.2 2 .5.6.3 1.1.7 1.5 1.2l0 0v-7.3h1.9L286.1 37.2zM280.9 35.7c.5 0 .9-.1 1.4-.3.4-.2.7-.4 1-.7.3-.3.5-.7.6-1.1.3-.9.3-1.9 0-2.8-.1-.4-.4-.8-.6-1.1-.3-.3-.6-.6-1-.7-.9-.3-1.8-.3-2.7 0-.4.2-.7.4-1 .7-.3.3-.5.7-.6 1.1-.3.9-.3 1.9 0 2.8.1.4.4.8.6 1.1.3.3.6.5 1 .7C280 35.7 280.5 35.8 280.9 35.7zM290.8 33c0 .4.1.8.3 1.2.2.4.4.7.7.9.3.3.7.5 1.1.6.4.1.8.2 1.3.2.5 0 1.1-.1 1.5-.4.5-.3.9-.7 1.2-1.1l1.4 1.1c-1.1 1.3-2.7 2.1-4.4 2-.7 0-1.4-.1-2.1-.4-.6-.2-1.2-.6-1.6-1.1-.4-.5-.8-1-1-1.7-.2-.7-.4-1.4-.4-2.1 0-.7.1-1.4.4-2.1.3-.6.6-1.2 1.1-1.6.5-.5 1-.8 1.6-1.1.6-.3 1.3-.4 2-.4.8 0 1.5.1 2.2.5.6.3 1.1.7 1.5 1.2.4.5.7 1.1.9 1.7.2.6.3 1.3.3 1.9V33H290.8zM296.8 31.5c0-.4-.1-.8-.2-1.1-.1-.3-.3-.6-.5-.9-.2-.3-.6-.5-.9-.6-.4-.2-.8-.2-1.2-.2-.4 0-.9.1-1.3.3-.4.2-.7.4-1 .7-.3.3-.5.6-.6.9-.1.3-.2.7-.2 1L296.8 31.5zM301.4 27.3h1.9v1.5l0 0c.1-.3.3-.5.5-.7.2-.2.4-.4.7-.6.3-.2.6-.3.9-.4.3-.1.6-.1.9-.1.3 0 .6 0 .8.1l-.1 2-.5-.1c-.2 0-.3 0-.5 0-.8-.1-1.6.2-2.1.8-.5.7-.8 1.5-.7 2.4v5h-1.9L301.4 27.3zM309.6 27.3h1.9v1.5l0 0c.3-.6.7-1 1.2-1.3.6-.3 1.3-.5 2-.5.5 0 .9.1 1.4.2.4.1.8.4 1.1.7.3.3.6.7.8 1.2.2.5.3 1.1.3 1.7v6.4h-1.8v-5.9c0-.4-.1-.8-.2-1.2-.1-.3-.3-.6-.5-.8-.2-.2-.4-.4-.7-.4-.3-.1-.6-.1-.9-.1-.4 0-.7.1-1.1.2-.3.1-.6.3-.9.6-.3.3-.5.6-.6 1-.1.5-.2 1-.2 1.5v5.1h-1.9V27.3zM323.1 33c0 .4.1.8.3 1.2.2.3.4.7.7.9.3.3.7.5 1.1.6.4.1.8.2 1.3.2.5 0 1.1-.1 1.5-.4.5-.3.9-.7 1.2-1.1l1.4 1.1c-1.1 1.3-2.7 2.1-4.4 2-.7 0-1.5-.1-2.1-.4-.6-.2-1.2-.6-1.6-1.1-.4-.5-.8-1-1-1.7-.2-.7-.4-1.4-.4-2.1 0-.7.1-1.4.4-2.1.2-.6.6-1.2 1.1-1.6.5-.5 1-.8 1.6-1.1.6-.3 1.3-.4 2-.4.8 0 1.5.1 2.2.5.6.3 1.1.7 1.5 1.2.4.5.7 1.1.8 1.7.2.6.3 1.3.3 1.9V33H323.1zM329 31.5c0-.4-.1-.8-.2-1.1-.1-.3-.3-.6-.5-.9-.2-.3-.6-.5-.9-.6-.4-.2-.8-.2-1.2-.2-.8 0-1.7.3-2.2.9-.3.3-.5.6-.6.9-.1.3-.2.7-.2 1L329 31.5zM333.7 27.3h1.8v1.5l0 0c.1-.2.2-.4.3-.5.2-.2.4-.4.7-.6.3-.2.6-.4 1-.5 1-.3 2.1-.2 3.1.3.5.3 1 .8 1.2 1.4.3-.6.8-1.1 1.4-1.4.5-.3 1.2-.5 1.8-.5.7 0 1.3.1 1.9.4.5.2.9.6 1.1 1 .3.4.5.9.6 1.4.1.5.2 1.1.2 1.6v5.8h-1.9v-5.5c0-.4 0-.7-.1-1.1 0-.3-.1-.6-.3-.9-.2-.3-.4-.5-.6-.6-1-.5-2.3-.2-3.1.6-.4.6-.6 1.4-.6 2.2v5.4h-1.9v-5.2c0-.4 0-.9-.1-1.3 0-.3-.1-.7-.3-1-.1-.3-.4-.5-.6-.7-.3-.2-.7-.3-1.1-.2-.3 0-.7.1-1 .2-.3.1-.6.3-.8.6-.3.3-.5.6-.6 1-.1.5-.2 1-.2 1.5v5.2h-1.9L333.7 27.3zM353.4 33c0 .4.1.8.3 1.2.2.4.4.7.7.9.3.3.7.5 1.1.6.4.1.8.2 1.2.2.5 0 1.1-.1 1.5-.4.5-.3.9-.7 1.2-1.1l1.4 1.1c-1.1 1.3-2.7 2.1-4.4 2-.7 0-1.4-.1-2.1-.4-.6-.2-1.2-.6-1.6-1.1-.4-.5-.8-1-1-1.7-.2-.7-.4-1.4-.4-2.1 0-.7.1-1.4.4-2.1.2-.6.6-1.2 1.1-1.6.5-.5 1-.8 1.6-1.1.6-.3 1.3-.4 2-.4.8 0 1.5.1 2.2.5.6.3 1.1.7 1.5 1.2.4.5.7 1.1.9 1.7.2.6.3 1.3.3 1.9V33H353.4zM359.4 31.5c0-.4-.1-.8-.2-1.1-.1-.3-.3-.6-.5-.9-.3-.3-.6-.5-.9-.6-.4-.2-.8-.2-1.2-.2-.4 0-.9.1-1.3.3-.4.2-.7.4-1 .7-.3.3-.5.6-.6.9-.1.3-.2.7-.2 1L359.4 31.5zM364 27.3h1.9v1.5l0 0c.3-.6.7-1 1.2-1.3.6-.3 1.3-.5 2-.5.5 0 .9.1 1.4.2.4.1.8.4 1.1.7.3.3.6.7.8 1.2.2.5.3 1.1.3 1.7v6.4H371v-5.9c0-.4-.1-.8-.2-1.2-.1-.3-.3-.6-.5-.8-.2-.2-.4-.4-.7-.4-.3-.1-.6-.1-.9-.1-.4 0-.7.1-1.1.2-.3.1-.6.3-.9.6-.3.3-.5.6-.6 1-.1.5-.2 1-.2 1.5v5.1h-2V27.3zM386 37.2h-1.9v-1.4l0 0c-.4.5-.9 1-1.5 1.2-.6.3-1.3.4-2 .4-.7 0-1.4-.1-2.1-.4-.6-.2-1.1-.6-1.6-1.1-.4-.5-.8-1-1-1.7-.2-.7-.4-1.4-.4-2 0-.7.1-1.4.4-2.1.2-.6.6-1.2 1-1.6.4-.5 1-.8 1.6-1.1.7-.3 1.4-.4 2.1-.4.7 0 1.4.2 2 .5.6.3 1.1.7 1.5 1.2l0 0v-7.3h1.9L386 37.2zM380.9 35.7c.5 0 .9-.1 1.4-.3.4-.2.7-.4 1-.7.3-.3.5-.7.6-1.1.3-.9.3-1.9 0-2.8-.1-.4-.4-.8-.6-1.1-.3-.3-.6-.6-1-.7-.9-.3-1.8-.3-2.7 0-.4.2-.7.4-1 .7-.3.3-.5.7-.6 1.1-.3.9-.3 1.9 0 2.8.1.4.4.8.6 1.1.3.3.6.5 1 .7C380 35.7 380.4 35.8 380.9 35.7zM246 44.7c0-.4.1-.7.4-1 .3-.3.6-.4 1-.4.4 0 .7.1 1 .4.6.5.6 1.4.1 1.9 0 0-.1.1-.1.1-.3.3-.6.4-1 .4-.4 0-.7-.1-1-.4C246.1 45.4 246 45.1 246 44.7zM246.4 48.3h1.9v9.9h-1.9V48.3zM251.7 48.3h1.9v1.5l0 0c.3-.6.7-1 1.2-1.3.6-.3 1.3-.5 2-.5.5 0 .9.1 1.4.2.4.1.8.4 1.1.7.3.3.6.7.8 1.2.2.5.3 1.1.3 1.7v6.4h-1.8v-5.9c0-.4-.1-.8-.2-1.2-.1-.3-.3-.6-.5-.8-.2-.2-.4-.4-.7-.4-.3-.1-.6-.1-.9-.1-.4 0-.7.1-1.1.2-.3.1-.6.3-.9.6-.3.3-.5.6-.6 1-.1.5-.2 1-.2 1.5v5.1h-1.9V48.3zM279.9 58.2H278v-1.4l0 0c-.4.5-.9 1-1.5 1.2-.6.3-1.3.4-2 .4-.7 0-1.4-.1-2.1-.4-.6-.3-1.1-.6-1.6-1.1-.4-.5-.8-1-1-1.7-.5-1.3-.5-2.8 0-4.1.2-.6.6-1.2 1-1.7.4-.5 1-.8 1.6-1.1.7-.3 1.4-.4 2.1-.4.7 0 1.4.1 2 .5.6.3 1.1.7 1.5 1.2l0 0v-7.3h1.9L279.9 58.2zM274.8 56.7c.5 0 .9-.1 1.4-.3.4-.2.7-.4 1-.7.3-.3.5-.7.6-1.1.3-.9.3-1.9 0-2.8-.1-.4-.4-.8-.6-1.1-.3-.3-.6-.5-1-.7-.9-.4-1.9-.4-2.7 0-.4.2-.7.4-1 .7-.3.3-.5.7-.6 1.1-.3.9-.3 1.9 0 2.8.1.4.4.8.6 1.1.3.3.6.5 1 .7C273.8 56.6 274.3 56.7 274.8 56.7zM283.2 49.5c.5-.5 1.2-.9 1.8-1.1.7-.2 1.4-.4 2.1-.4.6 0 1.3.1 1.9.3.5.2.9.4 1.3.7.3.3.6.7.8 1.1.2.4.2.8.2 1.2v5.1c0 .3 0 .7 0 1s0 .6.1.8h-1.7c0-.5-.1-1-.1-1.5l0 0c-.4.6-.9 1.1-1.5 1.4-1 .4-2.2.5-3.3.2-.4-.1-.8-.3-1.1-.6-.3-.3-.6-.6-.8-.9-.2-.4-.3-.8-.3-1.3 0-.6.1-1.1.4-1.6.3-.4.7-.8 1.2-1.1.5-.3 1.1-.5 1.7-.6.7-.1 1.4-.2 2.1-.2h1.4v-.4c0-.3-.1-.5-.1-.8-.1-.3-.2-.5-.4-.7-.2-.2-.5-.4-.7-.5-.3-.1-.7-.2-1-.2-.6 0-1.2.1-1.7.4-.2.1-.4.2-.6.4l-.5.4L283.2 49.5zM288.6 53.4c-.5 0-.9 0-1.4.1-.4 0-.9.1-1.3.3-.4.1-.7.3-1 .6-.3.3-.4.6-.4 1 0 .5.2 1 .6 1.2.5.3 1 .4 1.6.4.5 0 .9-.1 1.3-.3.3-.2.6-.4.9-.7.2-.3.4-.6.5-.9.1-.3.1-.7.1-1v-.6L288.6 53.4zM294.5 42.4h1.9v10.2l4.3-4.3h2.6l-4.6 4.5 5 5.4H301l-4.6-5.2v5.2h-1.9V42.4zM307.2 53.9c0 .4.1.8.3 1.2.2.4.4.7.7.9.3.3.7.5 1.1.6.4.1.8.2 1.2.2.5 0 1.1-.1 1.5-.4.5-.3.9-.7 1.2-1.1l1.4 1.1c-1.1 1.3-2.7 2.1-4.4 2-.7 0-1.4-.1-2.1-.4-.6-.3-1.2-.6-1.6-1.1-.4-.5-.8-1-1-1.7-.2-.7-.4-1.4-.4-2.1 0-.7.1-1.4.4-2.1.2-.6.6-1.2 1.1-1.7.5-.5 1-.8 1.6-1.1.7-.3 1.3-.4 2-.4.8 0 1.5.1 2.2.5.6.3 1.1.7 1.5 1.2.4.5.7 1.1.9 1.7.2.6.3 1.3.3 1.9v.7L307.2 53.9zM313.2 52.4c0-.4-.1-.8-.2-1.2-.1-.3-.3-.6-.5-.9-.3-.3-.6-.5-.9-.6-.4-.2-.8-.2-1.2-.2-.4 0-.9.1-1.3.3-.7.3-1.3.9-1.6 1.6-.1.3-.2.7-.2 1L313.2 52.4zM317.8 48.3h1.9v1.5l0 0c.3-.6.7-1 1.3-1.3.6-.3 1.3-.5 2-.5.5 0 .9.1 1.4.2.4.1.8.4 1.1.7.3.3.6.7.8 1.2.2.5.3 1.1.3 1.7v6.4h-1.9v-5.9c0-.4-.1-.8-.2-1.2-.1-.3-.3-.6-.5-.8-.2-.2-.5-.3-.7-.4-.3-.1-.6-.1-.9-.1-.4 0-.7.1-1.1.2-.3.1-.6.3-.9.6-.3.3-.5.6-.6 1-.1.5-.2 1-.2 1.5v5.1h-1.9L317.8 48.3z"/></g></g></svg>