<svg xmlns="http://www.w3.org/2000/svg" viewBox="0 0 120 137">
<g stroke="null"><path class="logo__path" fill="#55546E" d="M500.822 73.605c0-5.453 1.914-9.961 5.636-13.526 3.721-3.565 8.72-5.348 15.1-5.348 7.23 0 12.76 2.097 16.481 6.186 2.978 3.356 4.467 7.445 4.467 12.373 0 5.453-1.808 9.961-5.53 13.526-3.722 3.46-8.826 5.243-15.312 5.243-5.849 0-10.528-1.468-14.143-4.404-4.466-3.46-6.7-8.178-6.7-14.05zm13.93 0c0 3.145.638 5.557 1.914 7.025 1.276 1.573 2.977 2.307 4.891 2.307 2.02 0 3.616-.734 4.892-2.202 1.276-1.468 1.914-3.88 1.914-7.235 0-3.146-.638-5.452-1.914-6.92-1.276-1.468-2.871-2.307-4.785-2.307-2.02 0-3.722.734-4.998 2.307-1.276 1.468-1.914 3.88-1.914 7.025zM549.205 55.675h12.973v5.242c1.914-2.201 3.722-3.67 5.636-4.613 1.914-.944 4.147-1.363 6.911-1.363 2.872 0 5.21.524 6.912 1.468 1.702 1.048 3.084 2.516 4.147 4.508 2.233-2.306 4.148-3.88 5.955-4.718 1.808-.839 4.041-1.258 6.593-1.258 3.828 0 6.912 1.153 9.039 3.46 2.233 2.307 3.296 5.872 3.296 10.695v22.23h-13.93V70.982c0-1.572-.319-2.83-.957-3.565-.957-1.258-2.127-1.887-3.51-1.887-1.594 0-2.976.63-3.934 1.783-.957 1.153-1.488 3.04-1.488 5.662v18.35h-13.93V71.612c0-1.573-.107-2.622-.32-3.146-.318-.944-.85-1.573-1.488-2.202-.744-.524-1.595-.839-2.552-.839-1.595 0-2.871.63-3.935 1.783-1.063 1.153-1.595 3.145-1.595 5.872v18.244h-13.823v-35.65zM619.068 104.956V55.675h12.973v5.242c1.807-2.201 3.402-3.67 4.891-4.508 2.02-1.049 4.254-1.573 6.7-1.573 4.89 0 8.613 1.782 11.271 5.452 2.658 3.67 3.934 8.179 3.934 13.527 0 5.976-1.488 10.485-4.36 13.63-2.87 3.146-6.486 4.72-10.952 4.72-2.127 0-4.04-.315-5.848-1.05-1.808-.733-3.297-1.782-4.786-3.145v16.986h-13.823zm13.93-31.351c0 2.83.638 4.928 1.807 6.291 1.17 1.363 2.765 2.097 4.573 2.097 1.595 0 2.977-.629 4.04-1.992 1.064-1.258 1.596-3.565 1.596-6.71 0-2.937-.532-5.034-1.702-6.397-1.17-1.363-2.552-1.992-4.147-1.992-1.807 0-3.296.734-4.466 2.097-1.17 1.363-1.701 3.565-1.701 6.606zM712.218 55.675h12.973v5.767c1.914-2.412 3.935-4.09 5.849-5.138 2.02-1.049 4.36-1.573 7.23-1.573 3.829 0 6.913 1.153 9.04 3.355 2.232 2.307 3.296 5.767 3.296 10.486v22.753h-13.93V71.717c0-2.201-.426-3.88-1.276-4.718-.851-.944-2.02-1.363-3.51-1.363-1.7 0-3.083.629-4.04 1.887-1.064 1.259-1.595 3.565-1.595 6.711v17.091h-13.93v-35.65h-.107zM754.753 55.675h14.674l7.444 23.802 6.912-23.802H797.5l-14.355 38.167c-1.595 4.404-3.297 7.34-4.998 8.808-2.446 2.201-6.061 3.25-11.06 3.25-2.02 0-5.103-.315-9.25-.839l-1.064-9.542c2.02.63 4.254.944 6.7.944 1.594 0 2.977-.42 3.934-1.153 1.063-.734 1.914-2.097 2.552-3.985l-15.206-35.65zM496.675 71.193h-14.356c-.638 3.146-1.808 5.453-3.296 7.13-1.489 1.678-3.722 2.412-6.7 2.412-3.083 0-5.423-1.049-7.124-3.04-1.701-1.993-2.552-5.768-2.552-11.22 0-4.404.744-7.655 2.127-9.752 1.807-2.726 4.572-4.194 8.081-4.194 1.595 0 2.978.315 4.147.944 1.276.629 2.34 1.573 3.19 2.726.532.734 1.064 1.783 1.49 3.25h14.46s-.637-2.62-.743-3.04c-1.702-5.243-4.467-9.018-8.082-11.534-3.615-2.517-8.507-3.775-14.887-3.775-8.082 0-14.25 2.202-18.715 6.606-4.36 4.404-6.593 10.695-6.593 18.769 0 6.081 1.276 11.114 3.722 15.099 2.552 3.88 5.53 6.71 8.932 8.178 3.403 1.573 7.869 2.307 13.292 2.307 4.466 0 8.188-.629 11.059-1.887 2.871-1.258 5.317-3.146 7.23-5.662 1.915-2.517 3.404-5.662 4.254-9.437.32-.105 1.064-3.88 1.064-3.88zM704.137 87.76c-.213-.944-.32-2.307-.32-3.984V67.943c0-1.678-.318-3.46-1.063-5.243-.638-1.887-1.595-3.25-2.764-4.299-1.702-1.468-3.828-2.412-6.274-2.831-2.552-.42-5.849-.734-9.996-.734-2.552 0-4.998.21-7.23.524-2.234.42-3.935.944-5.211 1.573-1.808.944-3.084 2.097-4.041 3.46-.957 1.258-1.701 3.146-2.127 5.348 0 .105-.212 1.363-.212 1.363h13.504c.532-1.573 1.276-2.621 2.127-3.146 1.17-.734 2.871-1.048 5.104-1.048 1.808 0 2.978.314 3.722 1.048.744.63 1.063 1.888 1.063 3.565-1.701.63-3.402 1.259-4.891 1.678-1.595.42-4.892 1.153-10.102 2.202-4.36.839-7.337 2.097-8.932 3.88-1.595 1.782-2.446 3.984-2.446 6.71 0 2.936 1.17 5.348 3.403 7.34s5.53 2.936 9.889 2.936c3.296 0 6.061-.524 8.613-1.468 1.808-.734 3.616-1.992 5.423-3.67.107 1.049.32 1.783.426 2.307.212.524.531 1.153 1.063 2.097h13.08c-1.064-1.678-1.596-2.831-1.808-3.775zm-13.824-11.114c0 1.677-.319 3.04-.85 4.194-.532 1.048-1.49 1.992-2.872 2.726a8.714 8.714 0 0 1-4.36 1.153c-1.488 0-2.552-.314-3.402-1.048-.745-.734-1.17-1.573-1.17-2.621 0-.944.425-1.783 1.17-2.517.744-.734 2.552-1.468 5.317-2.202 2.02-.524 4.04-1.153 5.954-1.782v2.097h.213z"></path><g><path class="logo__path" fill="#55546E" d="M286.873 73.605c0-5.453 1.808-9.961 5.636-13.422 3.722-3.565 8.72-5.347 15.1-5.347 7.23 0 12.76 2.097 16.482 6.186 2.977 3.356 4.466 7.445 4.466 12.373 0 5.453-1.808 9.961-5.53 13.526-3.721 3.565-8.826 5.243-15.312 5.243-5.849 0-10.527-1.468-14.143-4.404-4.572-3.565-6.699-8.283-6.699-14.155zm13.824 0c0 3.145.638 5.557 1.914 7.025 1.276 1.573 2.977 2.307 4.891 2.307 2.02 0 3.616-.734 4.892-2.202 1.276-1.468 1.914-3.88 1.914-7.235 0-3.04-.638-5.348-1.914-6.92-1.276-1.468-2.871-2.307-4.785-2.307-2.02 0-3.722.734-4.998 2.307-1.17 1.468-1.914 3.88-1.914 7.025zM335.15 55.675h12.973v5.767c1.914-2.412 3.934-4.09 5.848-5.138 2.02-1.049 4.36-1.573 7.231-1.573 3.828 0 6.806 1.153 9.039 3.355 2.126 2.202 3.296 5.767 3.296 10.486v22.753h-13.93V71.717c0-2.201-.425-3.774-1.276-4.718-.85-.944-2.02-1.363-3.51-1.363-1.7 0-3.083.629-4.146 1.887-1.064 1.259-1.595 3.46-1.595 6.711v17.091h-13.93v-35.65zM419.9 42.044v49.281h-12.973v-5.242c-1.808 2.201-3.51 3.774-4.998 4.508-2.02 1.049-4.254 1.573-6.7 1.573-4.89 0-8.719-1.887-11.27-5.557-2.553-3.67-3.935-8.179-3.935-13.526 0-5.872 1.382-10.486 4.36-13.631 2.87-3.146 6.486-4.719 10.952-4.719 2.127 0 4.147.315 5.849 1.049 1.7.734 3.296 1.782 4.678 3.25V42.044H419.9zm-13.93 31.351c0-2.83-.638-4.928-1.808-6.291-1.17-1.363-2.765-2.097-4.572-2.097-1.596 0-2.978.629-4.041 1.992-1.064 1.363-1.595 3.565-1.595 6.71 0 2.937.531 5.034 1.701 6.397 1.17 1.363 2.552 1.992 4.147 1.992 1.808 0 3.19-.734 4.466-2.097 1.064-1.258 1.702-3.565 1.702-6.606zM186.492 68.048c-1.383-2.202-3.51-3.985-6.38-5.453-2.872-1.468-7.763-2.936-14.462-4.404-2.765-.524-4.467-1.153-5.21-1.782-.745-.63-1.17-1.363-1.17-2.097 0-1.049.425-1.993 1.382-2.727.957-.734 2.233-1.153 4.04-1.153 2.234 0 3.935.524 5.105 1.468 1.276 1.049 2.02 2.621 2.445 4.823h14.675s0-.314-.106-.839v-.104-.315c-.745-4.928-2.659-8.493-5.955-10.8-3.403-2.307-8.188-3.565-14.568-3.565-5.21 0-9.358.63-12.335 1.887-2.978 1.259-5.21 3.041-6.7 5.348-1.488 2.202-2.233 4.614-2.233 7.13 0 3.88 1.49 7.025 4.36 9.542 2.871 2.516 7.763 4.509 14.462 5.976 4.147.944 6.805 1.888 7.869 2.832 1.17 1.048 1.701 2.202 1.701 3.46 0 1.363-.638 2.516-1.808 3.565-1.17 1.048-2.87 1.573-5.104 1.573-2.977 0-5.21-1.049-6.805-3.041-.957-1.258-1.595-3.04-1.914-5.348H143s.106.734.106 1.154c.426 4.823 2.34 8.912 5.53 12.058 3.296 3.25 9.145 4.823 17.652 4.823 4.891 0 8.826-.734 12.016-2.097 3.19-1.363 5.635-3.355 7.443-6.081 1.808-2.622 2.659-5.558 2.659-8.703.106-2.517-.638-5.033-1.914-7.13zM235.513 75.387c0-4.718-.745-8.493-2.34-11.429-1.595-2.936-3.828-5.138-6.805-6.71-2.978-1.573-7.125-2.307-12.335-2.307-6.38 0-11.378 1.677-14.994 5.138-3.615 3.46-5.423 7.969-5.423 13.526 0 3.88.957 7.34 2.765 10.276 1.808 2.936 4.04 5.033 6.805 6.396 2.765 1.363 6.487 1.992 11.378 1.992 5.53 0 9.783-.734 12.76-2.307 2.978-1.573 5.53-4.09 7.55-7.76.32-.523.639-1.257.639-1.257H221.05a12.158 12.158 0 0 1-2.446 2.306c-1.276.63-2.552 1.049-3.934 1.049-2.127 0-3.935-.734-5.21-2.307-.958-1.048-1.596-2.726-1.809-4.928h27.86v-1.678zm-27.754-5.033c.212-2.097.744-3.774 1.595-4.823 1.276-1.782 3.084-2.621 5.317-2.621 1.914 0 3.402.524 4.572 1.677 1.17 1.154 1.914 3.041 2.127 5.663h-13.611v.104zM282.194 78.848l.213-1.468h-13.398c-.639 1.887-1.596 3.355-2.765 4.194-1.276.943-2.765 1.363-4.573 1.363-2.126 0-3.934-.734-5.423-2.307-1.382-1.573-2.127-3.775-2.127-6.71 0-3.251.745-5.768 2.127-7.34 1.383-1.573 3.297-2.412 5.53-2.412 1.807 0 3.296.42 4.36 1.153 1.063.734 1.807 1.888 2.233 3.46h13.292s-.107-.943-.213-1.677c0-.105 0-.105-.106-.21-.107-.21-.107-.524-.213-.629-1.276-3.565-3.297-6.396-6.168-8.283-3.083-2.098-7.656-3.146-13.504-3.146-4.254 0-7.657.524-10.421 1.678-1.702.734-3.403 1.782-4.998 3.145-1.595 1.468-2.871 3.041-3.828 4.824-1.276 2.411-1.914 5.452-1.914 9.227 0 3.565.531 6.396 1.595 8.493 1.063 2.097 2.445 3.984 4.36 5.557 1.807 1.573 4.04 2.726 6.592 3.46 2.552.734 5.743 1.049 9.57 1.049 3.935 0 7.232-.524 9.89-1.678 2.552-1.153 4.679-2.621 6.38-4.613 1.382-1.678 2.446-3.67 3.19-5.872.107-.21.213-.524.213-.839 0-.21 0-.315.106-.42z"></path></g></g><path fill="#BD112A" d="M96 2C66.8 2 66.5 31.5 66.5 31.5v-.1 37.8H37.1v29.4h29.4-.1c28.2 0 29.4-27.5 29.5-29.4V31.4h31.2V2H96z"></path><path class="logo__path" fill="#55546E" d="M57 106.5H28.3V60.2h28.8V30.8H28.4s-26.7.3-27 29.5v46.1s-1.8 29.2 27 29.5H57v-29.4z"></path></svg>